<?xml version="1.0" encoding="UTF-8"?>
<svg xmlns="http://www.w3.org/2000/svg" xmlns:xlink="http://www.w3.org/1999/xlink" width="320px" height="80px" viewBox="0 0 320 80" version="1.1">
<g id="surface1">
<path style=" stroke:none;fill-rule:evenodd;fill:rgb(100%,100%,100%);fill-opacity:1;" d="M 66.164062 27.699219 C 60.476562 21.304688 50.167969 15.617188 44.660156 12.949219 C 42.882812 12.058594 41.816406 14.015625 43.59375 14.902344 C 47.859375 16.859375 53.546875 20.414062 58.34375 24.324219 C 65.273438 30.011719 66.699219 38.722656 59.414062 45.476562 C 51.589844 52.761719 42.171875 58.273438 32.039062 61.648438 C 21.910156 65.027344 15.152344 61.292969 11.066406 54.007812 C 5.199219 43.519531 3.957031 26.8125 11.066406 16.679688 C 21.019531 2.640625 39.148438 17.039062 42.347656 29.300781 C 39.503906 28.414062 35.949219 28.945312 32.929688 31.078125 C 29.195312 33.566406 26.882812 38.007812 27.597656 41.210938 C 28.664062 45.296875 33.816406 46.898438 39.328125 44.941406 C 45.367188 42.808594 48.035156 37.65625 46.96875 31.613281 C 44.304688 17.925781 25.285156 -2.515625 10 6.726562 C 6.265625 9.929688 3.421875 14.550781 2 20.769531 C -1.195312 34.632812 -0.488281 49.03125 3.601562 62.894531 C 6.800781 73.382812 15.152344 77.46875 25.460938 74.804688 C 41.101562 70.890625 54.257812 63.429688 65.808594 51.519531 C 73.273438 43.695312 73.097656 35.523438 66.164062 27.699219 Z M 150.589844 22.726562 C 146.503906 22.367188 143.125 24.148438 140.636719 28.054688 C 138.148438 24.148438 134.949219 22.367188 130.683594 22.726562 C 127.664062 22.902344 124.996094 24.148438 123.21875 26.101562 C 121.265625 28.234375 120.195312 31.078125 120.195312 34.632812 L 120.195312 51.695312 L 124.109375 51.695312 L 124.109375 34.101562 C 124.109375 31.789062 124.640625 30.011719 125.882812 28.414062 C 127.132812 26.8125 128.726562 26.101562 130.863281 26.101562 C 132.992188 26.101562 134.773438 26.8125 136.371094 28.234375 C 137.972656 29.65625 138.683594 31.257812 138.683594 33.386719 L 138.683594 51.695312 L 142.773438 51.695312 L 142.773438 33.386719 C 142.773438 31.433594 143.480469 29.65625 145.082031 28.234375 C 146.679688 26.8125 148.460938 26.101562 150.589844 26.101562 C 152.726562 26.101562 154.324219 26.8125 155.570312 28.414062 C 156.8125 30.011719 157.523438 31.789062 157.523438 34.101562 L 157.523438 51.695312 L 161.433594 51.695312 L 161.433594 34.632812 C 161.433594 31.078125 160.367188 28.234375 158.414062 26.101562 C 156.101562 24.148438 153.613281 22.902344 150.589844 22.726562 Z M 112.378906 27.347656 L 112.199219 27.167969 C 109.355469 24.324219 105.976562 22.726562 102.070312 22.546875 C 97.980469 22.367188 94.425781 23.789062 91.402344 26.8125 C 88.382812 29.835938 86.960938 33.386719 86.960938 37.476562 C 86.960938 41.566406 88.382812 44.941406 91.050781 47.785156 C 93.894531 50.632812 97.089844 52.226562 101.003906 52.40625 C 105.445312 52.585938 109.355469 50.804688 112.378906 47.253906 L 112.378906 51.695312 L 116.109375 51.695312 L 116.109375 23.257812 L 112.378906 23.257812 Z M 109.179688 45.476562 C 107.042969 47.785156 104.199219 48.851562 101.179688 48.675781 C 98.335938 48.496094 95.847656 47.429688 93.714844 45.117188 C 91.582031 42.808594 90.695312 40.320312 90.695312 37.300781 C 90.695312 34.277344 91.757812 31.613281 93.894531 29.476562 C 96.023438 27.347656 98.691406 26.277344 101.710938 26.277344 C 104.554688 26.277344 107.042969 27.347656 109.179688 29.476562 C 111.3125 31.613281 112.378906 34.101562 112.378906 37.121094 C 112.378906 40.320312 111.3125 43.164062 109.179688 45.476562 Z M 264.699219 42.988281 L 264.699219 26.8125 L 271.273438 26.8125 L 271.273438 23.257812 L 264.699219 23.257812 L 264.699219 13.304688 L 260.789062 13.304688 L 260.789062 43.519531 C 260.789062 49.382812 264.34375 52.40625 271.273438 52.40625 L 271.273438 49.207031 C 267.007812 49.207031 264.699219 47.074219 264.699219 42.988281 Z M 319.976562 43.34375 C 319.800781 39.609375 317.664062 37.121094 313.933594 35.699219 L 310.734375 34.632812 C 308.246094 33.742188 307.003906 32.320312 307.179688 30.367188 C 307.179688 29.300781 307.535156 28.414062 308.425781 27.699219 C 309.132812 26.992188 310.199219 26.632812 311.269531 26.632812 C 312.335938 26.632812 313.398438 26.992188 314.113281 27.523438 C 315 28.054688 315.355469 28.945312 315.355469 30.011719 L 315.355469 30.722656 L 319.265625 30.722656 L 319.265625 29.835938 C 319.085938 27.878906 318.199219 26.101562 316.601562 24.855469 C 315 23.433594 313.042969 22.902344 311.269531 22.902344 C 308.957031 23.082031 307.179688 23.789062 305.582031 25.390625 C 303.980469 26.992188 303.269531 28.769531 303.445312 31.078125 C 303.625 34.808594 305.402344 37.121094 308.957031 38.1875 L 312.335938 39.253906 C 315.179688 40.144531 316.421875 41.742188 316.421875 44.230469 C 316.421875 45.652344 315.886719 46.71875 315.179688 47.609375 C 314.289062 48.496094 313.042969 49.03125 311.445312 49.03125 C 310.199219 49.03125 309.132812 48.496094 308.070312 47.609375 C 307.003906 46.539062 306.46875 45.652344 306.46875 44.585938 L 306.46875 43.695312 L 302.558594 43.695312 C 302.558594 46.1875 303.445312 48.320312 305.046875 49.917969 C 306.648438 51.695312 308.601562 52.585938 311.089844 52.761719 C 313.757812 52.941406 315.886719 52.054688 318.023438 50.273438 C 319.265625 48.140625 320.152344 45.832031 319.976562 43.34375 Z M 190.757812 27.347656 L 190.582031 27.167969 C 187.738281 24.324219 184.363281 22.726562 180.453125 22.546875 C 176.363281 22.367188 172.808594 23.789062 169.789062 26.8125 C 166.765625 29.835938 165.34375 33.386719 165.34375 37.476562 C 165.34375 41.566406 166.765625 44.941406 169.429688 47.785156 C 172.273438 50.632812 175.476562 52.226562 179.382812 52.40625 C 183.828125 52.585938 187.738281 50.804688 190.757812 47.253906 L 190.757812 51.695312 L 194.492188 51.695312 L 194.492188 23.257812 L 190.757812 23.257812 Z M 187.5625 45.476562 C 185.429688 47.785156 182.585938 48.851562 179.5625 48.675781 C 176.71875 48.496094 174.230469 47.429688 172.097656 45.117188 C 169.964844 42.808594 169.074219 40.320312 169.074219 37.300781 C 169.074219 34.277344 170.144531 31.613281 172.273438 29.476562 C 174.410156 27.347656 177.074219 26.277344 180.097656 26.277344 C 182.941406 26.277344 185.429688 27.347656 187.5625 29.476562 C 189.695312 31.613281 190.757812 34.101562 190.757812 37.121094 C 190.757812 40.320312 189.695312 43.164062 187.5625 45.476562 Z M 286.027344 22.546875 C 281.761719 22.367188 278.03125 23.789062 275.007812 26.8125 C 271.808594 29.835938 270.386719 33.566406 270.566406 37.832031 C 270.566406 41.921875 272.164062 45.296875 275.1875 48.320312 C 278.210938 51.164062 281.585938 52.585938 285.496094 52.585938 C 288.515625 52.585938 291.359375 51.695312 294.027344 49.917969 C 296.515625 48.140625 298.292969 45.652344 299.359375 42.632812 L 295.273438 42.632812 C 293.316406 46.71875 290.117188 48.851562 285.671875 48.851562 C 282.828125 48.851562 280.164062 47.960938 278.03125 46.1875 C 275.898438 44.230469 274.652344 41.921875 274.296875 39.078125 L 299.894531 39.078125 L 299.894531 36.945312 C 299.894531 33.386719 298.472656 30.191406 295.804688 27.347656 C 293.136719 24.324219 289.9375 22.726562 286.027344 22.546875 Z M 274.476562 35.34375 C 275.007812 32.679688 276.253906 30.542969 278.382812 28.769531 C 280.519531 27.167969 282.828125 26.277344 285.496094 26.277344 C 288.164062 26.277344 290.648438 27.167969 292.605469 28.769531 C 294.558594 30.367188 295.804688 32.5 296.335938 35.164062 L 274.476562 35.164062 Z M 242.835938 22.546875 C 238.75 22.367188 235.195312 23.789062 232.175781 26.8125 C 229.152344 29.835938 227.730469 33.386719 227.730469 37.476562 C 227.730469 41.566406 229.152344 44.941406 231.820312 47.785156 C 234.484375 50.632812 237.863281 52.226562 241.949219 52.226562 C 246.039062 52.40625 249.589844 50.984375 252.613281 47.960938 C 255.632812 44.941406 257.054688 41.386719 257.054688 37.300781 C 257.054688 33.210938 255.632812 29.835938 252.96875 26.992188 C 250.125 24.324219 246.746094 22.726562 242.835938 22.546875 Z M 250.125 45.476562 C 247.992188 47.785156 245.148438 48.851562 242.128906 48.675781 C 239.105469 48.496094 236.792969 47.429688 234.664062 45.117188 C 232.707031 42.808594 231.640625 40.320312 231.640625 37.300781 C 231.640625 34.277344 232.707031 31.613281 234.839844 29.476562 C 236.972656 27.347656 239.636719 26.277344 242.660156 26.277344 C 245.503906 26.277344 247.992188 27.347656 250.125 29.476562 C 252.257812 31.613281 253.324219 34.101562 253.324219 37.121094 C 253.324219 40.320312 252.257812 43.164062 250.125 45.476562 Z M 211.199219 22.726562 C 207.648438 22.726562 204.625 23.96875 202.132812 26.457031 C 199.648438 28.945312 198.582031 31.964844 198.582031 35.699219 L 198.582031 51.875 L 202.492188 51.875 L 202.492188 35.164062 C 202.492188 32.679688 203.382812 30.722656 205.15625 28.945312 C 206.933594 27.167969 208.890625 26.277344 211.378906 26.277344 C 213.6875 26.277344 215.820312 27.167969 217.421875 28.945312 C 219.199219 30.722656 220.085938 32.679688 220.085938 35.164062 L 220.085938 51.875 L 223.996094 51.875 L 223.996094 35.699219 C 223.996094 31.964844 222.753906 28.945312 220.445312 26.457031 C 217.777344 23.96875 214.757812 22.726562 211.199219 22.726562 Z M 117.351562 65.203125 L 117.351562 66.625 L 111.664062 66.625 L 111.664062 58.449219 L 117.175781 58.449219 L 117.175781 59.871094 L 113.085938 59.871094 L 113.085938 61.828125 L 116.464844 61.828125 L 116.464844 63.070312 L 113.085938 63.070312 L 113.085938 65.203125 Z M 122.332031 58.273438 L 124.460938 64.492188 L 126.597656 58.273438 L 128.195312 58.273438 L 124.996094 66.449219 L 123.574219 66.449219 L 120.375 58.273438 Z M 137.972656 65.203125 L 137.972656 66.625 L 132.285156 66.625 L 132.285156 58.449219 L 137.792969 58.449219 L 137.792969 59.871094 L 133.707031 59.871094 L 133.707031 61.828125 L 137.085938 61.828125 L 137.085938 63.070312 L 133.707031 63.070312 L 133.707031 65.203125 Z M 142.058594 66.449219 L 142.058594 58.273438 L 145.617188 58.273438 C 145.96875 58.273438 146.324219 58.273438 146.679688 58.449219 C 147.039062 58.628906 147.214844 58.804688 147.570312 59.164062 C 147.746094 59.335938 147.925781 59.695312 148.101562 60.050781 C 148.28125 60.40625 148.28125 60.757812 148.28125 61.117188 C 148.28125 61.648438 148.101562 62.179688 147.925781 62.539062 C 147.746094 62.894531 147.214844 63.25 146.859375 63.429688 L 148.8125 66.449219 L 147.039062 66.449219 L 145.4375 63.78125 L 143.835938 63.78125 L 143.835938 66.449219 Z M 143.660156 62.359375 L 145.617188 62.359375 C 145.792969 62.359375 145.96875 62.359375 145.96875 62.179688 C 146.148438 62.179688 146.148438 62.007812 146.324219 61.828125 C 146.503906 61.648438 146.503906 61.648438 146.503906 61.472656 L 146.503906 60.9375 C 146.503906 60.757812 146.503906 60.585938 146.324219 60.40625 C 146.324219 60.226562 146.148438 60.050781 146.148438 60.050781 L 145.792969 59.695312 C 145.617188 59.695312 145.4375 59.515625 145.4375 59.515625 L 143.480469 59.515625 L 143.480469 62.359375 Z M 153.257812 58.273438 L 155.210938 62.179688 L 157.347656 58.273438 L 159.121094 58.273438 L 156.101562 63.601562 L 156.101562 66.449219 L 154.503906 66.449219 L 154.503906 63.601562 L 151.480469 58.273438 Z M 165.878906 66.625 C 165.34375 66.625 164.808594 66.449219 164.277344 66.273438 C 163.742188 66.09375 163.386719 65.738281 163.035156 65.382812 C 162.679688 65.027344 162.320312 64.492188 162.144531 63.960938 C 161.964844 63.429688 161.789062 62.894531 161.789062 62.359375 C 161.789062 61.828125 161.964844 61.292969 162.144531 60.757812 C 162.320312 60.226562 162.679688 59.871094 163.035156 59.515625 C 163.386719 59.164062 163.742188 58.804688 164.277344 58.628906 C 164.808594 58.449219 165.34375 58.273438 165.878906 58.273438 C 166.410156 58.273438 166.945312 58.449219 167.476562 58.628906 C 168.007812 58.804688 168.367188 59.164062 168.722656 59.515625 C 169.074219 59.871094 169.253906 60.40625 169.609375 60.9375 C 169.789062 61.472656 169.964844 62.007812 169.964844 62.539062 C 169.964844 63.070312 169.789062 63.601562 169.609375 64.136719 C 169.429688 64.671875 169.074219 65.027344 168.722656 65.382812 C 168.367188 65.738281 168.007812 66.09375 167.476562 66.273438 C 166.945312 66.449219 166.410156 66.625 165.878906 66.625 Z M 163.386719 62.359375 C 163.386719 62.714844 163.386719 63.070312 163.566406 63.429688 C 163.742188 63.78125 163.742188 64.136719 164.101562 64.316406 C 164.277344 64.492188 164.632812 64.851562 164.808594 64.851562 C 165.164062 65.027344 165.523438 65.027344 165.878906 65.027344 C 166.230469 65.027344 166.585938 65.027344 166.945312 64.851562 C 167.300781 64.671875 167.476562 64.492188 167.652344 64.136719 C 167.832031 63.960938 168.007812 63.601562 168.1875 63.25 C 168.367188 62.894531 168.367188 62.539062 168.367188 62.179688 C 168.367188 61.828125 168.367188 61.472656 168.1875 61.117188 C 168.007812 60.757812 167.832031 60.40625 167.652344 60.226562 C 167.476562 60.050781 167.121094 59.695312 166.945312 59.695312 C 166.585938 59.515625 166.230469 59.515625 165.878906 59.515625 C 165.523438 59.515625 165.164062 59.515625 164.808594 59.695312 C 164.457031 59.871094 164.277344 60.050781 164.101562 60.40625 C 163.921875 60.585938 163.742188 60.9375 163.566406 61.292969 C 163.566406 61.828125 163.386719 62.007812 163.386719 62.359375 Z M 175.476562 61.292969 L 175.476562 66.625 L 173.875 66.625 L 173.875 58.449219 L 175.117188 58.449219 L 179.382812 63.78125 L 179.382812 58.449219 L 180.984375 58.449219 L 180.984375 66.625 L 179.742188 66.625 Z M 191.292969 65.203125 L 191.292969 66.625 L 185.605469 66.625 L 185.605469 58.449219 L 191.117188 58.449219 L 191.117188 59.871094 L 187.027344 59.871094 L 187.027344 61.828125 L 190.40625 61.828125 L 190.40625 63.070312 L 187.027344 63.070312 L 187.027344 65.203125 Z M 200.710938 62.359375 C 200.710938 61.828125 200.890625 61.292969 201.070312 60.9375 C 201.246094 60.40625 201.601562 60.050781 201.78125 59.695312 C 202.132812 59.335938 202.492188 58.984375 203.023438 58.804688 C 203.554688 58.628906 204.089844 58.449219 204.804688 58.449219 C 205.511719 58.449219 206.226562 58.628906 206.757812 58.984375 C 207.289062 59.335938 207.648438 59.695312 208 60.226562 L 206.757812 61.117188 C 206.578125 60.9375 206.578125 60.757812 206.398438 60.585938 C 206.226562 60.40625 206.046875 60.226562 205.867188 60.226562 C 205.691406 60.050781 205.511719 60.050781 205.335938 60.050781 L 204.804688 60.050781 C 204.445312 60.050781 204.089844 60.050781 203.734375 60.226562 C 203.382812 60.40625 203.203125 60.585938 203.023438 60.9375 C 202.847656 61.117188 202.667969 61.472656 202.492188 61.828125 C 202.3125 62.179688 202.3125 62.539062 202.3125 62.894531 C 202.3125 63.25 202.3125 63.601562 202.492188 63.960938 C 202.667969 64.316406 202.847656 64.671875 203.023438 64.851562 C 203.203125 65.027344 203.554688 65.382812 203.734375 65.382812 C 204.089844 65.558594 204.269531 65.558594 204.804688 65.558594 L 205.335938 65.558594 C 205.511719 65.558594 205.691406 65.382812 205.867188 65.382812 C 206.046875 65.203125 206.226562 65.203125 206.398438 65.027344 C 206.578125 64.851562 206.757812 64.671875 206.757812 64.492188 L 208 65.203125 C 207.820312 65.558594 207.648438 65.738281 207.46875 66.09375 C 207.289062 66.273438 206.933594 66.449219 206.578125 66.625 C 206.226562 66.804688 205.867188 66.980469 205.691406 66.980469 C 205.335938 66.980469 204.976562 67.160156 204.625 67.160156 C 204.089844 67.160156 203.554688 66.980469 203.023438 66.804688 C 202.492188 66.625 202.132812 66.273438 201.78125 65.914062 C 201.425781 65.558594 201.070312 65.027344 200.890625 64.492188 C 200.710938 63.429688 200.710938 62.894531 200.710938 62.359375 Z M 214.222656 58.273438 L 215.644531 58.273438 L 218.84375 66.449219 L 217.242188 66.449219 L 216.53125 64.316406 L 213.6875 64.316406 L 212.976562 66.449219 L 211.378906 66.449219 Z M 216 63.429688 L 214.933594 60.226562 L 213.6875 63.429688 Z M 224.175781 61.292969 L 224.175781 66.625 L 222.574219 66.625 L 222.574219 58.449219 L 223.820312 58.449219 L 228.085938 63.78125 L 228.085938 58.449219 L 229.683594 58.449219 L 229.683594 66.625 L 228.441406 66.625 Z M 246.570312 66.449219 L 246.570312 60.9375 L 244.4375 65.027344 L 243.550781 65.027344 L 241.414062 60.9375 L 241.414062 66.449219 L 239.992188 66.449219 L 239.992188 58.273438 L 241.773438 58.273438 L 244.257812 62.894531 L 246.746094 58.273438 L 248.523438 58.273438 L 248.523438 66.449219 Z M 256.347656 65.203125 C 256.703125 65.203125 257.054688 65.203125 257.234375 65.027344 C 257.414062 64.851562 257.769531 64.671875 257.945312 64.492188 C 258.125 64.316406 258.300781 63.960938 258.300781 63.601562 C 258.300781 63.25 258.476562 62.894531 258.476562 62.539062 L 258.476562 58.273438 L 260.078125 58.273438 L 260.078125 62.539062 C 260.078125 63.070312 260.078125 63.601562 259.898438 64.136719 C 259.722656 64.671875 259.546875 65.027344 259.191406 65.382812 C 258.835938 65.738281 258.476562 66.09375 258.125 66.273438 C 257.589844 66.449219 257.054688 66.625 256.523438 66.625 C 255.8125 66.625 255.28125 66.449219 254.925781 66.273438 C 254.390625 66.09375 254.035156 65.738281 253.859375 65.382812 C 253.503906 65.027344 253.324219 64.492188 253.324219 64.136719 C 253.148438 63.601562 253.148438 63.070312 253.148438 62.539062 L 253.148438 58.273438 L 254.746094 58.273438 L 254.746094 62.539062 C 254.746094 62.894531 254.746094 63.25 254.925781 63.601562 C 254.925781 63.960938 255.101562 64.136719 255.28125 64.492188 C 255.457031 64.671875 255.632812 65.027344 255.8125 65.027344 C 255.632812 65.027344 255.992188 65.203125 256.347656 65.203125 Z M 269.320312 60.40625 C 269.320312 60.40625 269.144531 60.226562 268.964844 60.226562 C 268.789062 60.050781 268.609375 60.050781 268.429688 59.871094 C 268.257812 59.871094 268.078125 59.695312 267.722656 59.695312 C 267.542969 59.695312 267.1875 59.515625 267.007812 59.515625 C 266.65625 59.515625 266.300781 59.515625 265.945312 59.695312 C 265.765625 59.871094 265.585938 60.050781 265.585938 60.40625 C 265.585938 60.585938 265.585938 60.757812 265.765625 60.757812 C 265.765625 60.9375 265.945312 60.9375 266.121094 61.117188 C 266.300781 61.117188 266.476562 61.292969 266.65625 61.292969 C 266.835938 61.292969 267.1875 61.472656 267.542969 61.472656 C 267.898438 61.648438 268.257812 61.648438 268.609375 61.828125 C 268.964844 62.007812 269.144531 62.179688 269.5 62.359375 C 269.679688 62.539062 269.851562 62.714844 270.03125 63.070312 C 270.210938 63.25 270.210938 63.601562 270.210938 63.960938 C 270.210938 64.316406 270.210938 64.851562 270.03125 65.027344 C 269.851562 65.382812 269.679688 65.558594 269.320312 65.738281 C 268.964844 65.914062 268.789062 66.09375 268.429688 66.09375 C 268.078125 66.273438 267.722656 66.273438 267.367188 66.273438 C 266.835938 66.273438 266.121094 66.09375 265.585938 65.914062 C 265.054688 65.738281 264.523438 65.382812 263.988281 65.203125 L 264.699219 63.78125 L 265.054688 64.136719 C 265.234375 64.316406 265.414062 64.316406 265.765625 64.492188 C 265.945312 64.671875 266.300781 64.671875 266.65625 64.851562 C 267.007812 64.851562 267.1875 65.027344 267.542969 65.027344 C 268.429688 65.027344 268.789062 64.671875 268.789062 64.136719 C 268.789062 63.960938 268.789062 63.78125 268.609375 63.601562 L 268.257812 63.25 C 268.078125 63.070312 267.898438 63.070312 267.542969 63.070312 C 267.367188 63.070312 267.007812 62.894531 266.65625 62.894531 C 266.300781 62.714844 265.945312 62.714844 265.585938 62.539062 C 265.234375 62.359375 265.054688 62.179688 264.878906 62.007812 C 264.699219 61.828125 264.523438 61.648438 264.523438 61.472656 C 264.34375 61.292969 264.34375 60.9375 264.34375 60.585938 C 264.34375 60.226562 264.34375 59.871094 264.523438 59.515625 C 264.699219 59.164062 264.878906 58.984375 265.234375 58.628906 C 265.585938 58.449219 265.765625 58.273438 266.121094 58.09375 C 266.476562 57.914062 266.835938 57.914062 267.367188 57.914062 C 267.898438 57.914062 268.429688 58.09375 268.964844 58.273438 C 269.5 58.449219 269.851562 58.628906 270.210938 58.984375 Z M 274.296875 66.449219 L 274.296875 58.273438 L 275.898438 58.273438 L 275.898438 66.449219 Z M 279.984375 62.359375 C 279.984375 61.828125 280.164062 61.292969 280.339844 60.9375 C 280.519531 60.40625 280.695312 60.050781 281.054688 59.695312 C 281.40625 59.335938 281.761719 58.984375 282.296875 58.804688 C 282.828125 58.628906 283.363281 58.449219 284.074219 58.449219 C 284.785156 58.449219 285.496094 58.628906 286.027344 58.984375 C 286.5625 59.335938 286.917969 59.695312 287.273438 60.226562 L 286.027344 61.117188 C 285.851562 60.9375 285.851562 60.757812 285.671875 60.585938 C 285.496094 60.40625 285.320312 60.226562 285.140625 60.226562 C 284.960938 60.050781 284.785156 60.050781 284.605469 60.050781 L 284.074219 60.050781 C 283.71875 60.050781 283.363281 60.050781 283.007812 60.226562 C 282.652344 60.40625 282.476562 60.585938 282.296875 60.9375 C 282.117188 61.117188 281.941406 61.472656 281.761719 61.828125 C 281.585938 62.179688 281.585938 62.539062 281.585938 62.894531 C 281.585938 63.25 281.585938 63.601562 281.761719 63.960938 C 281.941406 64.316406 282.117188 64.671875 282.296875 64.851562 C 282.476562 65.027344 282.828125 65.382812 283.007812 65.382812 C 283.363281 65.558594 283.71875 65.558594 284.074219 65.558594 L 284.605469 65.558594 C 284.785156 65.558594 284.960938 65.382812 285.140625 65.382812 C 285.320312 65.203125 285.496094 65.203125 285.671875 65.027344 C 285.851562 64.851562 286.027344 64.671875 286.027344 64.492188 L 287.273438 65.203125 C 287.09375 65.558594 286.917969 65.738281 286.742188 66.09375 C 286.5625 66.273438 286.207031 66.449219 285.851562 66.625 C 285.496094 66.804688 285.140625 66.980469 284.785156 66.980469 C 284.429688 66.980469 284.074219 67.160156 283.71875 67.160156 C 283.183594 67.160156 282.652344 66.980469 282.117188 66.804688 C 281.585938 66.625 281.230469 66.273438 280.875 65.914062 C 280.519531 65.558594 280.164062 65.027344 279.984375 64.492188 C 280.164062 63.429688 279.984375 62.894531 279.984375 62.359375 Z M 279.984375 62.359375 "/>
</g>
</svg>
