<svg xmlns="http://www.w3.org/2000/svg" width="400" height="144" viewBox="0 0 108 22" fill="none">
<path fill-rule="evenodd" clip-rule="evenodd" d="M20.1421 7.22015C18.4005 5.22262 15.2749 3.48972 13.596 2.64638C13.0468 2.37059 12.7205 2.95247 13.2885 3.22986C14.5767 3.85798 16.3105 4.92769 17.7744 6.13131C19.9099 7.88972 20.3335 10.5855 18.1039 12.6675C15.7095 14.9042 12.8585 16.6036 9.78161 17.6686C6.70939 18.7335 4.6398 17.5809 3.39083 15.3283C1.60367 12.1032 1.21611 6.89812 3.38298 3.77986C6.38303 -0.535645 11.8889 3.87711 12.8946 7.69522C12.0034 7.40349 10.9537 7.60276 10.0217 8.24204C8.86371 9.03595 8.17019 10.3623 8.4181 11.3874C8.7225 12.6484 10.3167 13.1665 11.9767 12.5464C13.8063 11.8609 14.6535 10.3145 14.2942 8.39508C13.4987 4.16406 7.67123 -2.1713 3.02367 0.739717C1.87198 1.6803 1.05136 3.14218 0.621436 5.04725C-0.35452 9.36276 -0.166233 13.7819 1.08902 18.0735C2.03673 21.3145 4.599 22.5564 7.72928 21.7704C12.5039 20.57 16.5223 18.2568 20.0213 14.5599C22.2776 12.1733 22.2509 9.63856 20.1421 7.22015Z" fill="url(#paint0_linear_3_50)"/>
<path d="M47.9646 6.52029C46.4991 6.40072 45.3286 7.03681 44.4546 8.43014C43.5806 7.03681 42.4101 6.40072 40.9446 6.52029C39.8447 6.61594 38.9582 7.03043 38.2851 7.76377C37.5633 8.54493 37.204 9.57638 37.204 10.8629V17.0054H38.6052V10.7003C38.6052 9.89522 38.8233 9.21449 39.261 8.65493C39.6988 8.09695 40.284 7.81797 41.0168 7.81797C41.7495 7.81797 42.4023 8.06348 42.9405 8.55609C43.4787 9.04869 43.747 9.66087 43.747 10.3942V17.0054H45.1654V10.3942C45.1654 9.66246 45.4337 9.04869 45.9719 8.55609C46.5101 8.06348 47.1518 7.81797 47.8956 7.81797C48.6393 7.81797 49.2198 8.10014 49.6686 8.66449C50.1173 9.22884 50.3417 9.90797 50.3417 10.7003V17.0054H51.7429V10.8629C51.7429 9.57797 51.3757 8.54493 50.643 7.76377C49.9573 7.03043 49.0645 6.61594 47.9662 6.52029H47.9646ZM34.4377 8.20855L34.3671 8.13203C33.3739 7.08145 32.1689 6.53145 30.7504 6.48362C29.2849 6.42304 28.0265 6.93159 26.9737 8.00609C25.9224 9.08058 25.3952 10.3687 25.3952 11.8704C25.3952 13.3722 25.8832 14.5535 26.8607 15.5993C27.8383 16.6435 29.0213 17.1903 30.4099 17.2381C31.9994 17.2859 33.341 16.6738 34.4377 15.4016V17.0054H35.7856V6.70043H34.4377V8.20855ZM33.2939 14.7065C32.5078 15.5403 31.5601 15.9341 30.4492 15.8862C29.4214 15.8384 28.5428 15.4096 27.8163 14.5981C27.0898 13.7883 26.7383 12.8429 26.7619 11.762C26.7744 10.6684 27.1589 9.73739 27.9151 8.96898C28.6714 8.20058 29.5878 7.81637 30.6626 7.81637C31.7374 7.81637 32.5721 8.20058 33.3049 8.96898C34.0376 9.73739 34.4158 10.662 34.4393 11.7429C34.4628 12.8843 34.0815 13.8712 33.2955 14.7065H33.2939ZM88.4416 13.7962V7.99652H90.7639V6.71797H88.4416V3.1342H87.0766V14.0322C87.0766 16.1572 88.3067 17.2206 90.7639 17.2206V16.0855C89.2152 16.0855 88.4416 15.3235 88.4416 13.7978V13.7962ZM107.992 13.9397C107.898 12.583 107.183 11.6696 105.844 11.2025L104.683 10.8055C103.779 10.493 103.351 9.97174 103.398 9.2384C103.409 8.84304 103.553 8.51145 103.829 8.2484C104.106 7.98377 104.43 7.84666 104.805 7.83391C105.193 7.83391 105.537 7.94551 105.835 8.1671C106.134 8.38869 106.283 8.68043 106.283 9.04072V9.27507H107.691V8.96898C107.644 8.2484 107.324 7.6458 106.729 7.15956C106.134 6.67333 105.497 6.44695 104.815 6.48362C104.026 6.51869 103.351 6.82 102.794 7.38435C102.234 7.94869 101.973 8.62782 102.008 9.42014C102.066 10.7417 102.712 11.5994 103.944 11.9964L105.122 12.3774C106.108 12.701 106.594 13.302 106.583 14.1788C106.571 14.6794 106.418 15.0891 106.125 15.4016C105.797 15.738 105.35 15.9117 104.788 15.9245C104.366 15.9372 103.968 15.7555 103.591 15.3841C103.216 15.0126 103.028 14.6523 103.028 14.3032V13.9604H101.637C101.637 14.8372 101.921 15.5929 102.491 16.2306C103.061 16.8667 103.767 17.2158 104.611 17.2748C105.526 17.3354 106.335 17.0261 107.04 16.347C107.744 15.6694 108.06 14.8675 107.991 13.9413L107.992 13.9397ZM62.2195 8.21014L62.1489 8.13362C61.1557 7.08304 59.9506 6.53304 58.5322 6.48522C57.0667 6.42464 55.8083 6.93319 54.7555 8.00768C53.7042 9.08217 53.177 10.3703 53.177 11.872C53.177 13.3738 53.665 14.5551 54.6425 15.6009C55.6216 16.6451 56.8031 17.1919 58.1917 17.2397C59.7812 17.2875 61.1227 16.6754 62.2195 15.4032V17.007H63.5673V6.70043H62.2195V8.21014ZM61.0757 14.7081C60.2896 15.5419 59.3419 15.9357 58.2294 15.8878C57.2017 15.84 56.323 15.4112 55.5965 14.5997C54.87 13.7899 54.5186 12.8445 54.5421 11.7636C54.5531 10.67 54.9375 9.73898 55.6938 8.97058C56.4501 8.20217 57.3664 7.81797 58.4412 7.81797C59.516 7.81797 60.3508 8.20217 61.0835 8.97058C61.8163 9.73898 62.1944 10.6636 62.2179 11.7445C62.2415 12.8859 61.8602 13.8728 61.0741 14.7081H61.0757ZM95.9935 6.44855C94.4919 6.36406 93.1896 6.87739 92.0834 7.98855C90.9788 9.09971 90.4438 10.4229 90.4799 11.9613C90.5034 13.4152 91.0463 14.6667 92.1101 15.7172C93.1739 16.7678 94.3978 17.2812 95.7801 17.2572C96.8785 17.2445 97.878 16.9145 98.7755 16.2656C99.673 15.6168 100.312 14.74 100.69 13.6352H99.254C98.5684 15.113 97.4277 15.8639 95.8335 15.8862C94.8042 15.899 93.913 15.569 93.1551 14.8962C92.3988 14.2235 91.9673 13.3706 91.8606 12.3375H100.938V11.5994C100.938 10.3272 100.459 9.17304 99.502 8.14159C98.5087 7.09739 97.3382 6.53304 95.992 6.44855H95.9935ZM91.8622 11.0781C92.0521 10.1057 92.5086 9.31811 93.2367 8.71869C93.9632 8.11768 94.812 7.82435 95.7817 7.83551C96.7514 7.84667 97.5846 8.15116 98.2812 8.7458C98.9779 9.34043 99.4219 10.1184 99.6102 11.0781H91.8622ZM80.6575 6.48522C79.203 6.43739 77.9509 6.95072 76.8996 8.02522C75.8468 9.09971 75.3212 10.3878 75.3212 11.8896C75.3212 13.3913 75.8091 14.5742 76.7835 15.6184C77.7579 16.6626 78.9488 17.203 80.3563 17.2397C81.8108 17.2875 83.066 16.7742 84.1236 15.6997C85.1811 14.6252 85.7115 13.3499 85.7115 11.872C85.7115 10.3942 85.2204 9.1842 84.2397 8.13362C83.259 7.08304 82.065 6.53304 80.6591 6.48522H80.6575ZM83.2198 14.7177C82.4337 15.5578 81.4844 15.9484 80.3735 15.8878C79.3333 15.8528 78.453 15.4287 77.7328 14.6188C77.011 13.8074 76.6627 12.862 76.6862 11.7812C76.6972 10.6891 77.0816 9.75493 77.8379 8.98014C78.5942 8.20536 79.5106 7.82435 80.5854 7.83551C81.6131 7.83551 82.4918 8.21971 83.2182 8.98811C83.9447 9.75652 84.326 10.6812 84.3621 11.762C84.3856 12.8907 84.0043 13.8743 83.2182 14.7161L83.2198 14.7177ZM69.4356 6.50435C68.1474 6.50435 67.0773 6.94594 66.2269 7.82753C65.3765 8.71072 64.9497 9.81869 64.9497 11.1514V17.0054H66.3148V11.0064C66.3148 10.1423 66.6254 9.39782 67.2452 8.7729C67.865 8.14797 68.5962 7.83551 69.434 7.83551C70.2719 7.83551 70.9858 8.14797 71.6056 8.7729C72.2254 9.39782 72.5361 10.1423 72.5361 11.0064V17.0054H73.9012V11.1514C73.9012 9.81869 73.476 8.71072 72.624 7.82753C71.7735 6.94435 70.7097 6.50435 69.4325 6.50435H69.4356Z" fill="#302565"/>
<defs>
<linearGradient id="paint0_linear_3_50" x1="32.578" y1="29.9738" x2="-1.46168" y2="0.433623" gradientUnits="userSpaceOnUse">
<stop stop-color="#5B00E3"/>
<stop offset="1" stop-color="#FF3177"/>
</linearGradient>
</defs>
</svg>
