<svg preserveAspectRatio="xMidYMid meet" data-bbox="-0.026 -0.006 180.039 40.051" viewBox="-0.026 -0.006 180.039 40.051" height="200" width="800" xmlns="http://www.w3.org/2000/svg" data-type="color" role="presentation" aria-hidden="true">
    <g>
        <path d="M37.2 13.1c-3.2-3.6-9-6.8-12.1-8.3-1-.5-1.6.6-.6 1.1 2.4 1.1 5.6 3.1 8.3 5.3 3.9 3.2 4.7 8.1.6 11.9-4.4 4.1-9.7 7.2-15.4 9.1-5.7 1.9-9.5-.2-11.8-4.3-3.3-5.9-4-15.3 0-21C11.8-1 22 7.1 23.8 14c-1.6-.5-3.6-.2-5.3 1-2.1 1.4-3.4 3.9-3 5.7.6 2.3 3.5 3.2 6.6 2.1 3.4-1.2 4.9-4.1 4.3-7.5-1.5-7.7-12.2-19.2-20.8-14-2.1 1.8-3.7 4.4-4.5 7.9C-.7 17-.3 25.1 2 32.9c1.8 5.9 6.5 8.2 12.3 6.7 8.8-2.2 16.2-6.4 22.7-13.1 4.2-4.4 4.1-9 .2-13.4zm47.5-2.8c-2.3-.2-4.2.8-5.6 3-1.4-2.2-3.2-3.2-5.6-3-1.7.1-3.2.8-4.2 1.9-1.1 1.2-1.7 2.8-1.7 4.8v9.6h2.2v-9.9c0-1.3.3-2.3 1-3.2.7-.9 1.6-1.3 2.8-1.3 1.2 0 2.2.4 3.1 1.2.9.8 1.3 1.7 1.3 2.9v10.3h2.3V16.3c0-1.1.4-2.1 1.3-2.9.9-.8 1.9-1.2 3.1-1.2 1.2 0 2.1.4 2.8 1.3.7.9 1.1 1.9 1.1 3.2v9.9h2.2V17c0-2-.6-3.6-1.7-4.8-1.3-1.1-2.7-1.8-4.4-1.9zm-21.5 2.6l-.1-.1c-1.6-1.6-3.5-2.5-5.7-2.6-2.3-.1-4.3.7-6 2.4-1.7 1.7-2.5 3.7-2.5 6s.8 4.2 2.3 5.8c1.6 1.6 3.4 2.5 5.6 2.6 2.5.1 4.7-.9 6.4-2.9v2.5h2.1v-16h-2.1v2.3zm-1.8 10.2c-1.2 1.3-2.8 1.9-4.5 1.8-1.6-.1-3-.7-4.2-2-1.2-1.3-1.7-2.7-1.7-4.4 0-1.7.6-3.2 1.8-4.4 1.2-1.2 2.7-1.8 4.4-1.8 1.6 0 3 .6 4.2 1.8 1.2 1.2 1.8 2.6 1.8 4.3 0 1.8-.6 3.4-1.8 4.7zm87.5-1.4v-9.1h3.7v-2h-3.7V5h-2.2v17c0 3.3 2 5 5.9 5v-1.8c-2.4 0-3.7-1.2-3.7-3.5zm31.1.2c-.1-2.1-1.3-3.5-3.4-4.3l-1.8-.6c-1.4-.5-2.1-1.3-2-2.4 0-.6.2-1.1.7-1.5.4-.4 1-.6 1.6-.6.6 0 1.2.2 1.6.5.5.3.7.8.7 1.4v.4h2.2v-.5c-.1-1.1-.6-2.1-1.5-2.8-.9-.8-2-1.1-3-1.1-1.3.1-2.3.5-3.2 1.4-.9.9-1.3 1.9-1.2 3.2.1 2.1 1.1 3.4 3.1 4l1.9.6c1.6.5 2.3 1.4 2.3 2.8 0 .8-.3 1.4-.7 1.9-.5.5-1.2.8-2.1.8-.7 0-1.3-.3-1.9-.8-.6-.6-.9-1.1-.9-1.7v-.5h-2.2c0 1.4.5 2.6 1.4 3.5.9 1 2 1.5 3.4 1.6 1.5.1 2.7-.4 3.9-1.4.7-1.2 1.2-2.5 1.1-3.9zm-72.7-9l-.1-.1c-1.6-1.6-3.5-2.5-5.7-2.6-2.3-.1-4.3.7-6 2.4-1.7 1.7-2.5 3.7-2.5 6s.8 4.2 2.3 5.8c1.6 1.6 3.4 2.5 5.6 2.6 2.5.1 4.7-.9 6.4-2.9v2.5h2.1v-16h-2.1v2.3zm-1.8 10.2c-1.2 1.3-2.8 1.9-4.5 1.8-1.6-.1-3-.7-4.2-2-1.2-1.3-1.7-2.7-1.7-4.4 0-1.7.6-3.2 1.8-4.4 1.2-1.2 2.7-1.8 4.4-1.8 1.6 0 3 .6 4.2 1.8 1.2 1.2 1.8 2.6 1.8 4.3 0 1.8-.6 3.4-1.8 4.7zm55.4-12.9c-2.4-.1-4.5.7-6.2 2.4-1.8 1.7-2.6 3.8-2.5 6.2 0 2.3.9 4.2 2.6 5.9 1.7 1.6 3.6 2.4 5.8 2.4 1.7 0 3.3-.5 4.8-1.5 1.4-1 2.4-2.4 3-4.1h-2.3c-1.1 2.3-2.9 3.5-5.4 3.5-1.6 0-3.1-.5-4.3-1.5-1.2-1.1-1.9-2.4-2.1-4h14.4v-1.2c0-2-.8-3.8-2.3-5.4-1.5-1.7-3.3-2.6-5.5-2.7zm-6.5 7.2c.3-1.5 1-2.7 2.2-3.7 1.2-.9 2.5-1.4 4-1.4s2.9.5 4 1.4c1.1.9 1.8 2.1 2.1 3.6h-12.3zm-17.8-7.2c-2.3-.1-4.3.7-6 2.4-1.7 1.7-2.5 3.7-2.5 6s.8 4.2 2.3 5.8c1.5 1.6 3.4 2.5 5.7 2.5 2.3.1 4.3-.7 6-2.4 1.7-1.7 2.5-3.7 2.5-6s-.8-4.2-2.3-5.8c-1.6-1.5-3.5-2.4-5.7-2.5zm4.1 12.9c-1.2 1.3-2.8 1.9-4.5 1.8-1.7-.1-3-.7-4.2-2-1.1-1.3-1.7-2.7-1.7-4.4 0-1.7.6-3.2 1.8-4.4 1.2-1.2 2.7-1.8 4.4-1.8 1.6 0 3 .6 4.2 1.8 1.2 1.2 1.8 2.6 1.8 4.3 0 1.8-.6 3.4-1.8 4.7zm-21.9-12.8c-2 0-3.7.7-5.1 2.1-1.4 1.4-2 3.1-2 5.2v9.1h2.2v-9.4c0-1.4.5-2.5 1.5-3.5s2.1-1.5 3.5-1.5c1.3 0 2.5.5 3.4 1.5 1 1 1.5 2.1 1.5 3.5v9.4h2.2v-9.1c0-2.1-.7-3.8-2-5.2-1.5-1.4-3.2-2.1-5.2-2.1zM66 34.2v.8h-3.2v-4.6h3.1v.8h-2.3v1.1h1.9v.7h-1.9v1.2H66zm2.8-3.9l1.2 3.5 1.2-3.5h.9l-1.8 4.6h-.8l-1.8-4.6h1.1zm8.8 3.9v.8h-3.2v-4.6h3.1v.8h-2.3v1.1h1.9v.7h-1.9v1.2h2.4zm2.3.7v-4.6h2c.2 0 .4 0 .6.1.2.1.3.2.5.4.1.1.2.3.3.5.1.2.1.4.1.6 0 .3-.1.6-.2.8-.1.2-.4.4-.6.5l1.1 1.7h-1l-.9-1.5h-.9v1.5h-1zm.9-2.3h1.1c.1 0 .2 0 .2-.1.1 0 .1-.1.2-.2s.1-.1.1-.2v-.3c0-.1 0-.2-.1-.3 0-.1-.1-.2-.1-.2l-.2-.2c-.1 0-.2-.1-.2-.1h-1.1v1.6zm5.4-2.3l1.1 2.2 1.2-2.2h1l-1.7 3v1.6h-.9v-1.6l-1.7-3h1zm7.1 4.7c-.3 0-.6-.1-.9-.2-.3-.1-.5-.3-.7-.5-.2-.2-.4-.5-.5-.8-.1-.3-.2-.6-.2-.9 0-.3.1-.6.2-.9.1-.3.3-.5.5-.7.2-.2.4-.4.7-.5.3-.1.6-.2.9-.2.3 0 .6.1.9.2.3.1.5.3.7.5.2.2.3.5.5.8.1.3.2.6.2.9 0 .3-.1.6-.2.9-.1.3-.3.5-.5.7-.2.2-.4.4-.7.5-.3.1-.6.2-.9.2zm-1.4-2.4c0 .2 0 .4.1.6.1.2.1.4.3.5.1.1.3.3.4.3.2.1.4.1.6.1.2 0 .4 0 .6-.1.2-.1.3-.2.4-.4.1-.1.2-.3.3-.5.1-.2.1-.4.1-.6 0-.2 0-.4-.1-.6-.1-.2-.2-.4-.3-.5-.1-.1-.3-.3-.4-.3-.2-.1-.4-.1-.6-.1-.2 0-.4 0-.6.1-.2.1-.3.2-.4.4-.1.1-.2.3-.3.5 0 .3-.1.4-.1.6zm6.8-.6v3h-.9v-4.6h.7l2.4 3v-3h.9V35h-.7l-2.4-3zm8.9 2.2v.8h-3.2v-4.6h3.1v.8h-2.3v1.1h1.9v.7h-1.9v1.2h2.4zm5.3-1.6c0-.3.1-.6.2-.8.1-.3.3-.5.4-.7.2-.2.4-.4.7-.5.3-.1.6-.2 1-.2s.8.1 1.1.3c.3.2.5.4.7.7l-.7.5c-.1-.1-.1-.2-.2-.3-.1-.1-.2-.2-.3-.2-.1-.1-.2-.1-.3-.1h-.3c-.2 0-.4 0-.6.1-.2.1-.3.2-.4.4-.1.1-.2.3-.3.5-.1.2-.1.4-.1.6 0 .2 0 .4.1.6.1.2.2.4.3.5.1.1.3.3.4.3.2.1.3.1.6.1h.3c.1 0 .2-.1.3-.1.1-.1.2-.1.3-.2.1-.1.2-.2.2-.3l.7.4c-.1.2-.2.3-.3.5-.1.1-.3.2-.5.3-.2.1-.4.2-.5.2-.2 0-.4.1-.6.1-.3 0-.6-.1-.9-.2s-.5-.3-.7-.5c-.2-.2-.4-.5-.5-.8-.1-.6-.1-.9-.1-1.2zm7.6-2.3h.8l1.8 4.6h-.9l-.4-1.2h-1.6l-.4 1.2h-.9l1.6-4.6zm1 2.9l-.6-1.8-.7 1.8h1.3zm4.6-1.2v3h-.9v-4.6h.7l2.4 3v-3h.9V35h-.7l-2.4-3zm12.6 2.9v-3.1l-1.2 2.3h-.5l-1.2-2.3v3.1h-.8v-4.6h1l1.4 2.6 1.4-2.6h1v4.6h-1.1zm5.5-.7c.2 0 .4 0 .5-.1.1-.1.3-.2.4-.3.1-.1.2-.3.2-.5s.1-.4.1-.6v-2.4h.9v2.4c0 .3 0 .6-.1.9s-.2.5-.4.7c-.2.2-.4.4-.6.5-.3.1-.6.2-.9.2-.4 0-.7-.1-.9-.2-.3-.1-.5-.3-.6-.5-.2-.2-.3-.5-.3-.7-.1-.3-.1-.6-.1-.9v-2.4h.9v2.4c0 .2 0 .4.1.6 0 .2.1.3.2.5.1.1.2.3.3.3-.1 0 .1.1.3.1zm7.3-2.7s-.1-.1-.2-.1c-.1-.1-.2-.1-.3-.2-.1 0-.2-.1-.4-.1-.1 0-.3-.1-.4-.1-.2 0-.4 0-.6.1-.1.1-.2.2-.2.4 0 .1 0 .2.1.2 0 .1.1.1.2.2.1 0 .2.1.3.1.1 0 .3.1.5.1.2.1.4.1.6.2.2.1.3.2.5.3.1.1.2.2.3.4.1.1.1.3.1.5s0 .5-.1.6c-.1.2-.2.3-.4.4-.2.1-.3.2-.5.2-.2.1-.4.1-.6.1-.3 0-.7-.1-1-.2-.3-.1-.6-.3-.9-.4l.4-.8.2.2c.1.1.2.1.4.2.1.1.3.1.5.2.2 0 .3.1.5.1.5 0 .7-.2.7-.5 0-.1 0-.2-.1-.3l-.2-.2c-.1-.1-.2-.1-.4-.1-.1 0-.3-.1-.5-.1-.2-.1-.4-.1-.6-.2-.2-.1-.3-.2-.4-.3-.1-.1-.2-.2-.2-.3-.1-.1-.1-.3-.1-.5s0-.4.1-.6c.1-.2.2-.3.4-.5.2-.1.3-.2.5-.3.2-.1.4-.1.7-.1.3 0 .6.1.9.2.3.1.5.2.7.4l-.5.8zm2.8 3.4v-4.6h.9v4.6h-.9zm3.2-2.3c0-.3.1-.6.2-.8.1-.3.2-.5.4-.7.2-.2.4-.4.7-.5.3-.1.6-.2 1-.2s.8.1 1.1.3c.3.2.5.4.7.7l-.7.5c-.1-.1-.1-.2-.2-.3-.1-.1-.2-.2-.3-.2-.1-.1-.2-.1-.3-.1h-.3c-.2 0-.4 0-.6.1-.2.1-.3.2-.4.4-.1.1-.2.3-.3.5-.1.2-.1.4-.1.6 0 .2 0 .4.1.6.1.2.2.4.3.5.1.1.3.3.4.3.2.1.4.1.6.1h.3c.1 0 .2-.1.3-.1.1-.1.2-.1.3-.2.1-.1.2-.2.2-.3l.7.4c-.1.2-.2.3-.3.5-.1.1-.3.2-.5.3-.2.1-.4.2-.6.2-.2 0-.4.1-.6.1-.3 0-.6-.1-.9-.2-.3-.1-.5-.3-.7-.5-.2-.2-.4-.5-.5-.8.1-.6 0-.9 0-1.2z" fill-rule="evenodd" clip-rule="evenodd" fill="#ffffff" data-color="1"></path>
    </g>
</svg>
