<?xml version="1.0" encoding="UTF-8"?>
<svg xmlns="http://www.w3.org/2000/svg" xmlns:xlink="http://www.w3.org/1999/xlink" width="160px" height="40px" viewBox="0 0 160 40" version="1.1">
<g id="surface1">
<path style=" stroke:none;fill-rule:evenodd;fill:rgb(100%,100%,100%);fill-opacity:1;" d="M 33.082031 13.851562 C 30.238281 10.652344 25.085938 7.808594 22.328125 6.476562 C 21.441406 6.03125 20.90625 7.007812 21.796875 7.453125 C 23.929688 8.429688 26.773438 10.207031 29.171875 12.164062 C 32.636719 15.007812 33.351562 19.359375 29.707031 22.738281 C 25.796875 26.382812 21.085938 29.136719 16.019531 30.824219 C 10.953125 32.515625 7.578125 30.648438 5.53125 27.003906 C 2.601562 21.757812 1.976562 13.40625 5.53125 8.339844 C 10.507812 1.320312 19.574219 8.519531 21.171875 14.648438 C 19.75 14.207031 17.976562 14.472656 16.464844 15.539062 C 14.597656 16.78125 13.441406 19.003906 13.796875 20.605469 C 14.332031 22.648438 16.90625 23.449219 19.664062 22.46875 C 22.683594 21.40625 24.015625 18.828125 23.484375 15.804688 C 22.152344 8.960938 12.640625 -1.257812 5 3.363281 C 3.132812 4.964844 1.710938 7.273438 1 10.382812 C -0.597656 17.316406 -0.242188 24.515625 1.800781 31.445312 C 3.398438 36.691406 7.578125 38.734375 12.730469 37.402344 C 20.550781 35.445312 27.128906 31.714844 32.90625 25.757812 C 36.636719 21.847656 36.546875 17.761719 33.082031 13.851562 Z M 75.296875 11.363281 C 73.25 11.183594 71.5625 12.074219 70.320312 14.027344 C 69.074219 12.074219 67.476562 11.183594 65.34375 11.363281 C 63.832031 11.453125 62.5 12.074219 61.609375 13.050781 C 60.632812 14.117188 60.097656 15.539062 60.097656 17.316406 L 60.097656 25.847656 L 62.054688 25.847656 L 62.054688 17.050781 C 62.054688 15.894531 62.320312 15.007812 62.941406 14.207031 C 63.566406 13.40625 64.363281 13.050781 65.429688 13.050781 C 66.496094 13.050781 67.386719 13.40625 68.1875 14.117188 C 68.984375 14.828125 69.34375 15.628906 69.34375 16.695312 L 69.34375 25.847656 L 71.386719 25.847656 L 71.386719 16.695312 C 71.386719 15.71875 71.742188 14.828125 72.539062 14.117188 C 73.339844 13.40625 74.230469 13.050781 75.296875 13.050781 C 76.363281 13.050781 77.164062 13.40625 77.785156 14.207031 C 78.40625 15.007812 78.761719 15.894531 78.761719 17.050781 L 78.761719 25.847656 L 80.71875 25.847656 L 80.71875 17.316406 C 80.71875 15.539062 80.183594 14.117188 79.207031 13.050781 C 78.050781 12.074219 76.804688 11.453125 75.296875 11.363281 Z M 56.1875 13.671875 L 56.101562 13.585938 C 54.679688 12.164062 52.988281 11.363281 51.035156 11.273438 C 48.992188 11.183594 47.210938 11.894531 45.703125 13.40625 C 44.191406 14.917969 43.480469 16.695312 43.480469 18.738281 C 43.480469 20.78125 44.191406 22.46875 45.523438 23.890625 C 46.945312 25.316406 48.546875 26.113281 50.5 26.203125 C 52.722656 26.292969 54.679688 25.402344 56.1875 23.625 L 56.1875 25.847656 L 58.054688 25.847656 L 58.054688 11.628906 L 56.1875 11.628906 Z M 54.589844 22.738281 C 53.523438 23.890625 52.101562 24.425781 50.589844 24.335938 C 49.167969 24.25 47.921875 23.714844 46.859375 22.558594 C 45.789062 21.40625 45.347656 20.160156 45.347656 18.648438 C 45.347656 17.140625 45.878906 15.804688 46.945312 14.738281 C 48.011719 13.671875 49.34375 13.140625 50.855469 13.140625 C 52.277344 13.140625 53.523438 13.671875 54.589844 14.738281 C 55.65625 15.804688 56.1875 17.050781 56.1875 18.5625 C 56.1875 20.160156 55.65625 21.582031 54.589844 22.738281 Z M 132.351562 21.492188 L 132.351562 13.40625 L 135.636719 13.40625 L 135.636719 11.628906 L 132.351562 11.628906 L 132.351562 6.652344 L 130.394531 6.652344 L 130.394531 21.757812 C 130.394531 24.691406 132.171875 26.203125 135.636719 26.203125 L 135.636719 24.601562 C 133.503906 24.601562 132.351562 23.539062 132.351562 21.492188 Z M 159.988281 21.671875 C 159.898438 19.804688 158.832031 18.5625 156.96875 17.851562 L 155.367188 17.316406 C 154.125 16.871094 153.5 16.160156 153.589844 15.183594 C 153.589844 14.648438 153.765625 14.207031 154.210938 13.851562 C 154.566406 13.496094 155.101562 13.316406 155.632812 13.316406 C 156.167969 13.316406 156.699219 13.496094 157.054688 13.761719 C 157.5 14.027344 157.679688 14.472656 157.679688 15.007812 L 157.679688 15.359375 L 159.632812 15.359375 L 159.632812 14.917969 C 159.542969 13.9375 159.101562 13.050781 158.300781 12.429688 C 157.5 11.71875 156.523438 11.453125 155.632812 11.453125 C 154.476562 11.539062 153.589844 11.894531 152.789062 12.695312 C 151.992188 13.496094 151.632812 14.382812 151.722656 15.539062 C 151.8125 17.40625 152.703125 18.5625 154.476562 19.09375 L 156.167969 19.625 C 157.589844 20.070312 158.210938 20.871094 158.210938 22.117188 C 158.210938 22.828125 157.945312 23.359375 157.589844 23.804688 C 157.144531 24.25 156.523438 24.515625 155.722656 24.515625 C 155.101562 24.515625 154.566406 24.25 154.035156 23.804688 C 153.5 23.269531 153.234375 22.828125 153.234375 22.292969 L 153.234375 21.847656 L 151.28125 21.847656 C 151.28125 23.09375 151.722656 24.160156 152.523438 24.960938 C 153.324219 25.847656 154.300781 26.292969 155.546875 26.382812 C 156.878906 26.46875 157.945312 26.027344 159.011719 25.136719 C 159.632812 24.070312 160.078125 22.914062 159.988281 21.671875 Z M 95.378906 13.671875 L 95.289062 13.585938 C 93.867188 12.164062 92.179688 11.363281 90.226562 11.273438 C 88.179688 11.183594 86.40625 11.894531 84.894531 13.40625 C 83.382812 14.917969 82.671875 16.695312 82.671875 18.738281 C 82.671875 20.78125 83.382812 22.46875 84.714844 23.890625 C 86.136719 25.316406 87.738281 26.113281 89.691406 26.203125 C 91.914062 26.292969 93.867188 25.402344 95.378906 23.625 L 95.378906 25.847656 L 97.246094 25.847656 L 97.246094 11.628906 L 95.378906 11.628906 Z M 93.78125 22.738281 C 92.714844 23.890625 91.292969 24.425781 89.78125 24.335938 C 88.359375 24.25 87.117188 23.714844 86.046875 22.558594 C 84.984375 21.40625 84.539062 20.160156 84.539062 18.648438 C 84.539062 17.140625 85.070312 15.804688 86.136719 14.738281 C 87.203125 13.671875 88.539062 13.140625 90.046875 13.140625 C 91.46875 13.140625 92.714844 13.671875 93.78125 14.738281 C 94.847656 15.804688 95.378906 17.050781 95.378906 18.5625 C 95.378906 20.160156 94.847656 21.582031 93.78125 22.738281 Z M 143.015625 11.273438 C 140.882812 11.183594 139.015625 11.894531 137.503906 13.40625 C 135.90625 14.917969 135.195312 16.78125 135.28125 18.914062 C 135.28125 20.960938 136.082031 22.648438 137.59375 24.160156 C 139.105469 25.582031 140.792969 26.292969 142.75 26.292969 C 144.257812 26.292969 145.679688 25.847656 147.015625 24.960938 C 148.257812 24.070312 149.148438 22.828125 149.679688 21.316406 L 147.636719 21.316406 C 146.65625 23.359375 145.058594 24.425781 142.835938 24.425781 C 141.414062 24.425781 140.082031 23.980469 139.015625 23.09375 C 137.949219 22.117188 137.328125 20.960938 137.148438 19.539062 L 149.945312 19.539062 L 149.945312 18.472656 C 149.945312 16.695312 149.234375 15.09375 147.902344 13.671875 C 146.570312 12.164062 144.96875 11.363281 143.015625 11.273438 Z M 137.238281 17.671875 C 137.503906 16.339844 138.125 15.273438 139.191406 14.382812 C 140.257812 13.585938 141.414062 13.140625 142.75 13.140625 C 144.082031 13.140625 145.324219 13.585938 146.304688 14.382812 C 147.28125 15.183594 147.902344 16.25 148.167969 17.582031 L 137.238281 17.582031 Z M 121.417969 11.273438 C 119.375 11.183594 117.597656 11.894531 116.085938 13.40625 C 114.578125 14.917969 113.867188 16.695312 113.867188 18.738281 C 113.867188 20.78125 114.578125 22.46875 115.910156 23.890625 C 117.242188 25.316406 118.929688 26.113281 120.976562 26.113281 C 123.019531 26.203125 124.796875 25.492188 126.304688 23.980469 C 127.816406 22.46875 128.527344 20.695312 128.527344 18.648438 C 128.527344 16.605469 127.816406 14.917969 126.484375 13.496094 C 125.0625 12.164062 123.375 11.363281 121.417969 11.273438 Z M 125.0625 22.738281 C 123.996094 23.890625 122.574219 24.425781 121.0625 24.335938 C 119.554688 24.25 118.398438 23.714844 117.332031 22.558594 C 116.351562 21.40625 115.820312 20.160156 115.820312 18.648438 C 115.820312 17.140625 116.351562 15.804688 117.421875 14.738281 C 118.484375 13.671875 119.820312 13.140625 121.328125 13.140625 C 122.75 13.140625 123.996094 13.671875 125.0625 14.738281 C 126.128906 15.804688 126.664062 17.050781 126.664062 18.5625 C 126.664062 20.160156 126.128906 21.582031 125.0625 22.738281 Z M 105.601562 11.363281 C 103.824219 11.363281 102.3125 11.984375 101.066406 13.226562 C 99.824219 14.472656 99.289062 15.984375 99.289062 17.851562 L 99.289062 25.9375 L 101.246094 25.9375 L 101.246094 17.582031 C 101.246094 16.339844 101.691406 15.359375 102.578125 14.472656 C 103.46875 13.585938 104.445312 13.140625 105.6875 13.140625 C 106.84375 13.140625 107.910156 13.585938 108.710938 14.472656 C 109.601562 15.359375 110.042969 16.339844 110.042969 17.582031 L 110.042969 25.9375 L 112 25.9375 L 112 17.851562 C 112 15.984375 111.375 14.472656 110.222656 13.226562 C 108.890625 11.984375 107.378906 11.363281 105.601562 11.363281 Z M 58.675781 32.601562 L 58.675781 33.3125 L 55.832031 33.3125 L 55.832031 29.226562 L 58.585938 29.226562 L 58.585938 29.9375 L 56.542969 29.9375 L 56.542969 30.914062 L 58.234375 30.914062 L 58.234375 31.535156 L 56.542969 31.535156 L 56.542969 32.601562 Z M 61.164062 29.136719 L 62.230469 32.246094 L 63.296875 29.136719 L 64.097656 29.136719 L 62.5 33.226562 L 61.789062 33.226562 L 60.1875 29.136719 Z M 68.984375 32.601562 L 68.984375 33.3125 L 66.140625 33.3125 L 66.140625 29.226562 L 68.898438 29.226562 L 68.898438 29.9375 L 66.851562 29.9375 L 66.851562 30.914062 L 68.542969 30.914062 L 68.542969 31.535156 L 66.851562 31.535156 L 66.851562 32.601562 Z M 71.03125 33.226562 L 71.03125 29.136719 L 72.808594 29.136719 C 72.984375 29.136719 73.164062 29.136719 73.339844 29.226562 C 73.519531 29.3125 73.609375 29.402344 73.785156 29.582031 C 73.875 29.667969 73.960938 29.847656 74.050781 30.023438 C 74.140625 30.203125 74.140625 30.378906 74.140625 30.558594 C 74.140625 30.824219 74.050781 31.089844 73.960938 31.269531 C 73.875 31.445312 73.609375 31.625 73.429688 31.714844 L 74.40625 33.226562 L 73.519531 33.226562 L 72.71875 31.890625 L 71.917969 31.890625 L 71.917969 33.226562 Z M 71.828125 31.179688 L 72.808594 31.179688 C 72.898438 31.179688 72.984375 31.179688 72.984375 31.089844 C 73.074219 31.089844 73.074219 31.003906 73.164062 30.914062 C 73.25 30.824219 73.25 30.824219 73.25 30.734375 L 73.25 30.46875 C 73.25 30.378906 73.25 30.292969 73.164062 30.203125 C 73.164062 30.113281 73.074219 30.023438 73.074219 30.023438 L 72.898438 29.847656 C 72.808594 29.847656 72.71875 29.757812 72.71875 29.757812 L 71.742188 29.757812 L 71.742188 31.179688 Z M 76.628906 29.136719 L 77.605469 31.089844 L 78.671875 29.136719 L 79.5625 29.136719 L 78.050781 31.800781 L 78.050781 33.226562 L 77.25 33.226562 L 77.25 31.800781 L 75.742188 29.136719 Z M 82.9375 33.3125 C 82.671875 33.3125 82.40625 33.226562 82.140625 33.136719 C 81.871094 33.046875 81.695312 32.867188 81.515625 32.691406 C 81.339844 32.515625 81.160156 32.246094 81.070312 31.980469 C 80.984375 31.714844 80.894531 31.445312 80.894531 31.179688 C 80.894531 30.914062 80.984375 30.648438 81.070312 30.378906 C 81.160156 30.113281 81.339844 29.9375 81.515625 29.757812 C 81.695312 29.582031 81.871094 29.402344 82.140625 29.3125 C 82.40625 29.226562 82.671875 29.136719 82.9375 29.136719 C 83.203125 29.136719 83.472656 29.226562 83.738281 29.3125 C 84.003906 29.402344 84.183594 29.582031 84.359375 29.757812 C 84.539062 29.9375 84.625 30.203125 84.804688 30.46875 C 84.894531 30.734375 84.984375 31.003906 84.984375 31.269531 C 84.984375 31.535156 84.894531 31.800781 84.804688 32.070312 C 84.714844 32.335938 84.539062 32.515625 84.359375 32.691406 C 84.183594 32.867188 84.003906 33.046875 83.738281 33.136719 C 83.472656 33.226562 83.203125 33.3125 82.9375 33.3125 Z M 81.695312 31.179688 C 81.695312 31.359375 81.695312 31.535156 81.78125 31.714844 C 81.871094 31.890625 81.871094 32.070312 82.050781 32.15625 C 82.140625 32.246094 82.316406 32.425781 82.40625 32.425781 C 82.582031 32.515625 82.761719 32.515625 82.9375 32.515625 C 83.117188 32.515625 83.292969 32.515625 83.472656 32.425781 C 83.648438 32.335938 83.738281 32.246094 83.828125 32.070312 C 83.914062 31.980469 84.003906 31.800781 84.09375 31.625 C 84.183594 31.445312 84.183594 31.269531 84.183594 31.089844 C 84.183594 30.914062 84.183594 30.734375 84.09375 30.558594 C 84.003906 30.378906 83.914062 30.203125 83.828125 30.113281 C 83.738281 30.023438 83.5625 29.847656 83.472656 29.847656 C 83.292969 29.757812 83.117188 29.757812 82.9375 29.757812 C 82.761719 29.757812 82.582031 29.757812 82.40625 29.847656 C 82.226562 29.9375 82.140625 30.023438 82.050781 30.203125 C 81.960938 30.292969 81.871094 30.46875 81.78125 30.648438 C 81.78125 30.914062 81.695312 31.003906 81.695312 31.179688 Z M 87.738281 30.648438 L 87.738281 33.3125 L 86.9375 33.3125 L 86.9375 29.226562 L 87.558594 29.226562 L 89.691406 31.890625 L 89.691406 29.226562 L 90.492188 29.226562 L 90.492188 33.3125 L 89.871094 33.3125 Z M 95.648438 32.601562 L 95.648438 33.3125 L 92.804688 33.3125 L 92.804688 29.226562 L 95.558594 29.226562 L 95.558594 29.9375 L 93.515625 29.9375 L 93.515625 30.914062 L 95.203125 30.914062 L 95.203125 31.535156 L 93.515625 31.535156 L 93.515625 32.601562 Z M 100.355469 31.179688 C 100.355469 30.914062 100.445312 30.648438 100.535156 30.46875 C 100.625 30.203125 100.800781 30.023438 100.890625 29.847656 C 101.066406 29.667969 101.246094 29.492188 101.511719 29.402344 C 101.777344 29.3125 102.046875 29.226562 102.402344 29.226562 C 102.757812 29.226562 103.113281 29.3125 103.378906 29.492188 C 103.644531 29.667969 103.824219 29.847656 104 30.113281 L 103.378906 30.558594 C 103.289062 30.46875 103.289062 30.378906 103.199219 30.292969 C 103.113281 30.203125 103.023438 30.113281 102.933594 30.113281 C 102.84375 30.023438 102.757812 30.023438 102.667969 30.023438 L 102.402344 30.023438 C 102.222656 30.023438 102.046875 30.023438 101.867188 30.113281 C 101.691406 30.203125 101.601562 30.292969 101.511719 30.46875 C 101.421875 30.558594 101.335938 30.734375 101.246094 30.914062 C 101.15625 31.089844 101.15625 31.269531 101.15625 31.445312 C 101.15625 31.625 101.15625 31.800781 101.246094 31.980469 C 101.335938 32.15625 101.421875 32.335938 101.511719 32.425781 C 101.601562 32.515625 101.777344 32.691406 101.867188 32.691406 C 102.046875 32.78125 102.132812 32.78125 102.402344 32.78125 L 102.667969 32.78125 C 102.757812 32.78125 102.84375 32.691406 102.933594 32.691406 C 103.023438 32.601562 103.113281 32.601562 103.199219 32.515625 C 103.289062 32.425781 103.378906 32.335938 103.378906 32.246094 L 104 32.601562 C 103.910156 32.78125 103.824219 32.867188 103.734375 33.046875 C 103.644531 33.136719 103.46875 33.226562 103.289062 33.3125 C 103.113281 33.402344 102.933594 33.492188 102.84375 33.492188 C 102.667969 33.492188 102.488281 33.578125 102.3125 33.578125 C 102.046875 33.578125 101.777344 33.492188 101.511719 33.402344 C 101.246094 33.3125 101.066406 33.136719 100.890625 32.957031 C 100.710938 32.78125 100.535156 32.515625 100.445312 32.246094 C 100.355469 31.714844 100.355469 31.445312 100.355469 31.179688 Z M 107.109375 29.136719 L 107.820312 29.136719 L 109.421875 33.226562 L 108.621094 33.226562 L 108.265625 32.15625 L 106.84375 32.15625 L 106.488281 33.226562 L 105.6875 33.226562 Z M 108 31.714844 L 107.46875 30.113281 L 106.84375 31.714844 Z M 112.085938 30.648438 L 112.085938 33.3125 L 111.289062 33.3125 L 111.289062 29.226562 L 111.910156 29.226562 L 114.042969 31.890625 L 114.042969 29.226562 L 114.84375 29.226562 L 114.84375 33.3125 L 114.21875 33.3125 Z M 123.285156 33.226562 L 123.285156 30.46875 L 122.21875 32.515625 L 121.773438 32.515625 L 120.707031 30.46875 L 120.707031 33.226562 L 119.996094 33.226562 L 119.996094 29.136719 L 120.886719 29.136719 L 122.128906 31.445312 L 123.375 29.136719 L 124.261719 29.136719 L 124.261719 33.226562 Z M 128.171875 32.601562 C 128.351562 32.601562 128.527344 32.601562 128.617188 32.515625 C 128.707031 32.425781 128.882812 32.335938 128.972656 32.246094 C 129.0625 32.15625 129.148438 31.980469 129.148438 31.800781 C 129.148438 31.625 129.238281 31.445312 129.238281 31.269531 L 129.238281 29.136719 L 130.039062 29.136719 L 130.039062 31.269531 C 130.039062 31.535156 130.039062 31.800781 129.949219 32.070312 C 129.859375 32.335938 129.773438 32.515625 129.59375 32.691406 C 129.417969 32.867188 129.238281 33.046875 129.0625 33.136719 C 128.796875 33.226562 128.527344 33.3125 128.261719 33.3125 C 127.90625 33.3125 127.640625 33.226562 127.460938 33.136719 C 127.195312 33.046875 127.015625 32.867188 126.929688 32.691406 C 126.75 32.515625 126.664062 32.246094 126.664062 32.070312 C 126.574219 31.800781 126.574219 31.535156 126.574219 31.269531 L 126.574219 29.136719 L 127.375 29.136719 L 127.375 31.269531 C 127.375 31.445312 127.375 31.625 127.460938 31.800781 C 127.460938 31.980469 127.550781 32.070312 127.640625 32.246094 C 127.726562 32.335938 127.816406 32.515625 127.90625 32.515625 C 127.816406 32.515625 127.996094 32.601562 128.171875 32.601562 Z M 134.660156 30.203125 C 134.660156 30.203125 134.570312 30.113281 134.484375 30.113281 C 134.394531 30.023438 134.304688 30.023438 134.214844 29.9375 C 134.128906 29.9375 134.039062 29.847656 133.859375 29.847656 C 133.773438 29.847656 133.59375 29.757812 133.503906 29.757812 C 133.328125 29.757812 133.148438 29.757812 132.972656 29.847656 C 132.882812 29.9375 132.792969 30.023438 132.792969 30.203125 C 132.792969 30.292969 132.792969 30.378906 132.882812 30.378906 C 132.882812 30.46875 132.972656 30.46875 133.0625 30.558594 C 133.148438 30.558594 133.238281 30.648438 133.328125 30.648438 C 133.417969 30.648438 133.59375 30.734375 133.773438 30.734375 C 133.949219 30.824219 134.128906 30.824219 134.304688 30.914062 C 134.484375 31.003906 134.570312 31.089844 134.75 31.179688 C 134.839844 31.269531 134.925781 31.359375 135.015625 31.535156 C 135.105469 31.625 135.105469 31.800781 135.105469 31.980469 C 135.105469 32.15625 135.105469 32.425781 135.015625 32.515625 C 134.925781 32.691406 134.839844 32.78125 134.660156 32.867188 C 134.484375 32.957031 134.394531 33.046875 134.214844 33.046875 C 134.039062 33.136719 133.859375 33.136719 133.683594 33.136719 C 133.417969 33.136719 133.0625 33.046875 132.792969 32.957031 C 132.527344 32.867188 132.261719 32.691406 131.992188 32.601562 L 132.351562 31.890625 L 132.527344 32.070312 C 132.617188 32.15625 132.707031 32.15625 132.882812 32.246094 C 132.972656 32.335938 133.148438 32.335938 133.328125 32.425781 C 133.503906 32.425781 133.59375 32.515625 133.773438 32.515625 C 134.214844 32.515625 134.394531 32.335938 134.394531 32.070312 C 134.394531 31.980469 134.394531 31.890625 134.304688 31.800781 L 134.128906 31.625 C 134.039062 31.535156 133.949219 31.535156 133.773438 31.535156 C 133.683594 31.535156 133.503906 31.445312 133.328125 31.445312 C 133.148438 31.359375 132.972656 31.359375 132.792969 31.269531 C 132.617188 31.179688 132.527344 31.089844 132.4375 31.003906 C 132.351562 30.914062 132.261719 30.824219 132.261719 30.734375 C 132.171875 30.648438 132.171875 30.46875 132.171875 30.292969 C 132.171875 30.113281 132.171875 29.9375 132.261719 29.757812 C 132.351562 29.582031 132.4375 29.492188 132.617188 29.3125 C 132.792969 29.226562 132.882812 29.136719 133.0625 29.046875 C 133.238281 28.957031 133.417969 28.957031 133.683594 28.957031 C 133.949219 28.957031 134.214844 29.046875 134.484375 29.136719 C 134.75 29.226562 134.925781 29.3125 135.105469 29.492188 Z M 137.148438 33.226562 L 137.148438 29.136719 L 137.949219 29.136719 L 137.949219 33.226562 Z M 139.992188 31.179688 C 139.992188 30.914062 140.082031 30.648438 140.171875 30.46875 C 140.257812 30.203125 140.347656 30.023438 140.527344 29.847656 C 140.703125 29.667969 140.882812 29.492188 141.148438 29.402344 C 141.414062 29.3125 141.679688 29.226562 142.039062 29.226562 C 142.390625 29.226562 142.75 29.3125 143.015625 29.492188 C 143.28125 29.667969 143.460938 29.847656 143.636719 30.113281 L 143.015625 30.558594 C 142.925781 30.46875 142.925781 30.378906 142.835938 30.292969 C 142.75 30.203125 142.660156 30.113281 142.570312 30.113281 C 142.480469 30.023438 142.390625 30.023438 142.304688 30.023438 L 142.039062 30.023438 C 141.859375 30.023438 141.679688 30.023438 141.503906 30.113281 C 141.328125 30.203125 141.238281 30.292969 141.148438 30.46875 C 141.058594 30.558594 140.96875 30.734375 140.882812 30.914062 C 140.792969 31.089844 140.792969 31.269531 140.792969 31.445312 C 140.792969 31.625 140.792969 31.800781 140.882812 31.980469 C 140.96875 32.15625 141.058594 32.335938 141.148438 32.425781 C 141.238281 32.515625 141.414062 32.691406 141.503906 32.691406 C 141.679688 32.78125 141.859375 32.78125 142.039062 32.78125 L 142.304688 32.78125 C 142.390625 32.78125 142.480469 32.691406 142.570312 32.691406 C 142.660156 32.601562 142.75 32.601562 142.835938 32.515625 C 142.925781 32.425781 143.015625 32.335938 143.015625 32.246094 L 143.636719 32.601562 C 143.546875 32.78125 143.460938 32.867188 143.371094 33.046875 C 143.28125 33.136719 143.101562 33.226562 142.925781 33.3125 C 142.75 33.402344 142.570312 33.492188 142.390625 33.492188 C 142.214844 33.492188 142.039062 33.578125 141.859375 33.578125 C 141.59375 33.578125 141.328125 33.492188 141.058594 33.402344 C 140.792969 33.3125 140.617188 33.136719 140.4375 32.957031 C 140.257812 32.78125 140.082031 32.515625 139.992188 32.246094 C 140.082031 31.714844 139.992188 31.445312 139.992188 31.179688 Z M 139.992188 31.179688 "/>
</g>
</svg>
