<?xml version="1.0" encoding="UTF-8"?>
<svg xmlns="http://www.w3.org/2000/svg" xmlns:xlink="http://www.w3.org/1999/xlink" width="240px" height="60px" viewBox="0 0 240 60" version="1.1">
<g id="surface1">
<path style=" stroke:none;fill-rule:evenodd;fill:rgb(100%,100%,100%);fill-opacity:1;" d="M 49.625 20.773438 C 45.359375 15.976562 37.625 11.710938 33.496094 9.710938 C 32.160156 9.042969 31.363281 10.511719 32.695312 11.175781 C 35.894531 12.644531 40.160156 15.308594 43.757812 18.242188 C 48.957031 22.507812 50.023438 29.042969 44.558594 34.105469 C 38.691406 39.570312 31.628906 43.703125 24.03125 46.238281 C 16.433594 48.769531 11.363281 45.96875 8.300781 40.503906 C 3.898438 32.640625 2.96875 20.109375 8.300781 12.511719 C 15.765625 1.980469 29.363281 12.777344 31.761719 21.976562 C 29.628906 21.308594 26.960938 21.710938 24.695312 23.308594 C 21.898438 25.175781 20.164062 28.507812 20.699219 30.90625 C 21.496094 33.972656 25.363281 35.171875 29.496094 33.707031 C 34.027344 32.105469 36.027344 28.242188 35.226562 23.710938 C 33.226562 13.445312 18.964844 -1.886719 7.5 5.046875 C 4.699219 7.445312 2.566406 10.914062 1.5 15.578125 C -0.898438 25.976562 -0.367188 36.773438 2.699219 47.171875 C 5.101562 55.035156 11.363281 58.101562 19.097656 56.101562 C 30.828125 53.167969 40.691406 47.570312 49.355469 38.640625 C 54.957031 32.773438 54.824219 26.640625 49.625 20.773438 Z M 112.941406 17.042969 C 109.878906 16.777344 107.34375 18.109375 105.476562 21.042969 C 103.613281 18.109375 101.210938 16.777344 98.011719 17.042969 C 95.746094 17.175781 93.746094 18.109375 92.414062 19.578125 C 90.949219 21.175781 90.148438 23.308594 90.148438 25.976562 L 90.148438 38.773438 L 93.082031 38.773438 L 93.082031 25.574219 C 93.082031 23.84375 93.480469 22.507812 94.414062 21.308594 C 95.347656 20.109375 96.546875 19.578125 98.148438 19.578125 C 99.746094 19.578125 101.078125 20.109375 102.277344 21.175781 C 103.480469 22.242188 104.011719 23.441406 104.011719 25.039062 L 104.011719 38.773438 L 107.078125 38.773438 L 107.078125 25.039062 C 107.078125 23.574219 107.609375 22.242188 108.8125 21.175781 C 110.011719 20.109375 111.34375 19.578125 112.941406 19.578125 C 114.542969 19.578125 115.742188 20.109375 116.675781 21.308594 C 117.609375 22.507812 118.140625 23.84375 118.140625 25.574219 L 118.140625 38.773438 L 121.074219 38.773438 L 121.074219 25.976562 C 121.074219 23.308594 120.273438 21.175781 118.808594 19.578125 C 117.074219 18.109375 115.210938 17.175781 112.941406 17.042969 Z M 84.285156 20.511719 L 84.148438 20.375 C 82.015625 18.242188 79.484375 17.042969 76.550781 16.910156 C 73.484375 16.777344 70.820312 17.84375 68.550781 20.109375 C 66.285156 22.375 65.21875 25.039062 65.21875 28.109375 C 65.21875 31.175781 66.285156 33.707031 68.289062 35.839844 C 70.421875 37.972656 72.816406 39.171875 75.753906 39.304688 C 79.085938 39.4375 82.015625 38.105469 84.285156 35.441406 L 84.285156 38.773438 L 87.082031 38.773438 L 87.082031 17.445312 L 84.285156 17.445312 Z M 81.882812 34.105469 C 80.28125 35.839844 78.148438 36.640625 75.886719 36.507812 C 73.753906 36.371094 71.886719 35.574219 70.285156 33.839844 C 68.6875 32.105469 68.019531 30.242188 68.019531 27.976562 C 68.019531 25.707031 68.820312 23.710938 70.421875 22.109375 C 72.019531 20.511719 74.019531 19.707031 76.285156 19.707031 C 78.417969 19.707031 80.28125 20.511719 81.882812 22.109375 C 83.484375 23.710938 84.285156 25.574219 84.285156 27.839844 C 84.285156 30.242188 83.484375 32.375 81.882812 34.105469 Z M 198.523438 32.242188 L 198.523438 20.109375 L 203.457031 20.109375 L 203.457031 17.445312 L 198.523438 17.445312 L 198.523438 9.976562 L 195.59375 9.976562 L 195.59375 32.640625 C 195.59375 37.039062 198.257812 39.304688 203.457031 39.304688 L 203.457031 36.90625 C 200.257812 36.90625 198.523438 35.304688 198.523438 32.242188 Z M 239.984375 32.507812 C 239.851562 29.707031 238.25 27.839844 235.449219 26.773438 L 233.050781 25.976562 C 231.183594 25.308594 230.253906 24.242188 230.382812 22.777344 C 230.382812 21.976562 230.652344 21.308594 231.320312 20.773438 C 231.851562 20.242188 232.648438 19.976562 233.453125 19.976562 C 234.25 19.976562 235.050781 20.242188 235.585938 20.644531 C 236.25 21.042969 236.515625 21.710938 236.515625 22.507812 L 236.515625 23.042969 L 239.449219 23.042969 L 239.449219 22.375 C 239.316406 20.910156 238.648438 19.578125 237.449219 18.640625 C 236.25 17.574219 234.78125 17.175781 233.453125 17.175781 C 231.71875 17.3125 230.382812 17.84375 229.1875 19.042969 C 227.984375 20.242188 227.453125 21.578125 227.585938 23.308594 C 227.71875 26.105469 229.050781 27.839844 231.71875 28.640625 L 234.25 29.441406 C 236.382812 30.109375 237.316406 31.308594 237.316406 33.171875 C 237.316406 34.238281 236.914062 35.039062 236.382812 35.707031 C 235.71875 36.371094 234.78125 36.773438 233.585938 36.773438 C 232.648438 36.773438 231.851562 36.371094 231.050781 35.707031 C 230.253906 34.90625 229.851562 34.238281 229.851562 33.441406 L 229.851562 32.773438 L 226.917969 32.773438 C 226.917969 34.640625 227.585938 36.238281 228.785156 37.4375 C 229.984375 38.773438 231.453125 39.4375 233.316406 39.570312 C 235.316406 39.707031 236.914062 39.039062 238.515625 37.707031 C 239.449219 36.105469 240.113281 34.375 239.984375 32.507812 Z M 143.070312 20.511719 L 142.9375 20.375 C 140.804688 18.242188 138.273438 17.042969 135.339844 16.910156 C 132.273438 16.777344 129.605469 17.84375 127.339844 20.109375 C 125.074219 22.375 124.007812 25.039062 124.007812 28.109375 C 124.007812 31.175781 125.074219 33.707031 127.074219 35.839844 C 129.207031 37.972656 131.605469 39.171875 134.539062 39.304688 C 137.871094 39.4375 140.804688 38.105469 143.070312 35.441406 L 143.070312 38.773438 L 145.871094 38.773438 L 145.871094 17.445312 L 143.070312 17.445312 Z M 140.671875 34.105469 C 139.070312 35.839844 136.9375 36.640625 134.671875 36.507812 C 132.539062 36.371094 130.671875 35.574219 129.074219 33.839844 C 127.472656 32.105469 126.804688 30.242188 126.804688 27.976562 C 126.804688 25.707031 127.609375 23.710938 129.207031 22.109375 C 130.808594 20.511719 132.804688 19.707031 135.074219 19.707031 C 137.207031 19.707031 139.070312 20.511719 140.671875 22.109375 C 142.269531 23.710938 143.070312 25.574219 143.070312 27.839844 C 143.070312 30.242188 142.269531 32.375 140.671875 34.105469 Z M 214.519531 16.910156 C 211.320312 16.777344 208.523438 17.84375 206.257812 20.109375 C 203.855469 22.375 202.789062 25.175781 202.925781 28.375 C 202.925781 31.441406 204.125 33.972656 206.390625 36.238281 C 208.65625 38.371094 211.1875 39.4375 214.121094 39.4375 C 216.386719 39.4375 218.519531 38.773438 220.519531 37.4375 C 222.386719 36.105469 223.71875 34.238281 224.519531 31.972656 L 221.453125 31.972656 C 219.988281 35.039062 217.585938 36.640625 214.253906 36.640625 C 212.121094 36.640625 210.121094 35.972656 208.523438 34.640625 C 206.921875 33.171875 205.988281 31.441406 205.722656 29.308594 L 224.921875 29.308594 L 224.921875 27.707031 C 224.921875 25.039062 223.855469 22.644531 221.851562 20.511719 C 219.851562 18.242188 217.453125 17.042969 214.519531 16.910156 Z M 205.855469 26.507812 C 206.257812 24.507812 207.191406 22.90625 208.789062 21.578125 C 210.390625 20.375 212.121094 19.707031 214.121094 19.707031 C 216.121094 19.707031 217.988281 20.375 219.453125 21.578125 C 220.917969 22.777344 221.851562 24.375 222.253906 26.375 L 205.855469 26.375 Z M 182.128906 16.910156 C 179.0625 16.777344 176.394531 17.84375 174.132812 20.109375 C 171.863281 22.375 170.796875 25.039062 170.796875 28.109375 C 170.796875 31.175781 171.863281 33.707031 173.863281 35.839844 C 175.863281 37.972656 178.398438 39.171875 181.460938 39.171875 C 184.527344 39.304688 187.191406 38.238281 189.460938 35.972656 C 191.726562 33.707031 192.792969 31.039062 192.792969 27.976562 C 192.792969 24.910156 191.726562 22.375 189.726562 20.242188 C 187.59375 18.242188 185.058594 17.042969 182.128906 16.910156 Z M 187.59375 34.105469 C 185.996094 35.839844 183.863281 36.640625 181.597656 36.507812 C 179.328125 36.371094 177.59375 35.574219 175.996094 33.839844 C 174.53125 32.105469 173.730469 30.242188 173.730469 27.976562 C 173.730469 25.707031 174.53125 23.710938 176.128906 22.109375 C 177.730469 20.511719 179.726562 19.707031 181.996094 19.707031 C 184.128906 19.707031 185.996094 20.511719 187.59375 22.109375 C 189.195312 23.710938 189.992188 25.574219 189.992188 27.839844 C 189.992188 30.242188 189.195312 32.375 187.59375 34.105469 Z M 158.398438 17.042969 C 155.734375 17.042969 153.46875 17.976562 151.601562 19.84375 C 149.734375 21.710938 148.9375 23.972656 148.9375 26.773438 L 148.9375 38.90625 L 151.867188 38.90625 L 151.867188 26.375 C 151.867188 24.507812 152.535156 23.042969 153.867188 21.710938 C 155.199219 20.375 156.667969 19.707031 158.535156 19.707031 C 160.265625 19.707031 161.867188 20.375 163.066406 21.710938 C 164.398438 23.042969 165.066406 24.507812 165.066406 26.375 L 165.066406 38.90625 L 167.996094 38.90625 L 167.996094 26.773438 C 167.996094 23.972656 167.066406 21.710938 165.332031 19.84375 C 163.332031 17.976562 161.066406 17.042969 158.398438 17.042969 Z M 88.015625 48.902344 L 88.015625 49.96875 L 83.75 49.96875 L 83.75 43.835938 L 87.882812 43.835938 L 87.882812 44.902344 L 84.816406 44.902344 L 84.816406 46.371094 L 87.347656 46.371094 L 87.347656 47.304688 L 84.816406 47.304688 L 84.816406 48.902344 Z M 91.75 43.703125 L 93.347656 48.371094 L 94.949219 43.703125 L 96.148438 43.703125 L 93.746094 49.835938 L 92.679688 49.835938 L 90.28125 43.703125 Z M 103.480469 48.902344 L 103.480469 49.96875 L 99.214844 49.96875 L 99.214844 43.835938 L 103.34375 43.835938 L 103.34375 44.902344 L 100.28125 44.902344 L 100.28125 46.371094 L 102.8125 46.371094 L 102.8125 47.304688 L 100.28125 47.304688 L 100.28125 48.902344 Z M 106.542969 49.835938 L 106.542969 43.703125 L 109.210938 43.703125 C 109.476562 43.703125 109.742188 43.703125 110.011719 43.835938 C 110.277344 43.972656 110.410156 44.105469 110.675781 44.371094 C 110.808594 44.503906 110.945312 44.769531 111.078125 45.039062 C 111.210938 45.304688 111.210938 45.570312 111.210938 45.835938 C 111.210938 46.238281 111.078125 46.636719 110.945312 46.902344 C 110.808594 47.171875 110.410156 47.4375 110.144531 47.570312 L 111.609375 49.835938 L 110.277344 49.835938 L 109.078125 47.835938 L 107.878906 47.835938 L 107.878906 49.835938 Z M 107.746094 46.769531 L 109.210938 46.769531 C 109.34375 46.769531 109.476562 46.769531 109.476562 46.636719 C 109.609375 46.636719 109.609375 46.503906 109.742188 46.371094 C 109.878906 46.238281 109.878906 46.238281 109.878906 46.105469 L 109.878906 45.703125 C 109.878906 45.570312 109.878906 45.4375 109.742188 45.304688 C 109.742188 45.171875 109.609375 45.039062 109.609375 45.039062 L 109.34375 44.769531 C 109.210938 44.769531 109.078125 44.636719 109.078125 44.636719 L 107.609375 44.636719 L 107.609375 46.769531 Z M 114.941406 43.703125 L 116.410156 46.636719 L 118.011719 43.703125 L 119.339844 43.703125 L 117.074219 47.703125 L 117.074219 49.835938 L 115.878906 49.835938 L 115.878906 47.703125 L 113.609375 43.703125 Z M 124.410156 49.96875 C 124.007812 49.96875 123.605469 49.835938 123.207031 49.703125 C 122.808594 49.570312 122.539062 49.304688 122.277344 49.035156 C 122.007812 48.769531 121.742188 48.371094 121.609375 47.96875 C 121.472656 47.570312 121.339844 47.171875 121.339844 46.769531 C 121.339844 46.371094 121.472656 45.96875 121.609375 45.570312 C 121.742188 45.171875 122.007812 44.902344 122.277344 44.636719 C 122.539062 44.371094 122.808594 44.105469 123.207031 43.972656 C 123.605469 43.835938 124.007812 43.703125 124.410156 43.703125 C 124.808594 43.703125 125.207031 43.835938 125.609375 43.972656 C 126.007812 44.105469 126.273438 44.371094 126.542969 44.636719 C 126.804688 44.902344 126.941406 45.304688 127.207031 45.703125 C 127.339844 46.105469 127.472656 46.503906 127.472656 46.902344 C 127.472656 47.304688 127.339844 47.703125 127.207031 48.101562 C 127.074219 48.503906 126.804688 48.769531 126.542969 49.035156 C 126.273438 49.304688 126.007812 49.570312 125.609375 49.703125 C 125.207031 49.835938 124.808594 49.96875 124.410156 49.96875 Z M 122.539062 46.769531 C 122.539062 47.035156 122.539062 47.304688 122.675781 47.570312 C 122.808594 47.835938 122.808594 48.101562 123.074219 48.238281 C 123.207031 48.371094 123.472656 48.636719 123.605469 48.636719 C 123.875 48.769531 124.140625 48.769531 124.410156 48.769531 C 124.671875 48.769531 124.941406 48.769531 125.207031 48.636719 C 125.476562 48.503906 125.609375 48.371094 125.738281 48.101562 C 125.875 47.96875 126.007812 47.703125 126.140625 47.4375 C 126.273438 47.171875 126.273438 46.902344 126.273438 46.636719 C 126.273438 46.371094 126.273438 46.105469 126.140625 45.835938 C 126.007812 45.570312 125.875 45.304688 125.738281 45.171875 C 125.609375 45.039062 125.339844 44.769531 125.207031 44.769531 C 124.941406 44.636719 124.671875 44.636719 124.410156 44.636719 C 124.140625 44.636719 123.875 44.636719 123.605469 44.769531 C 123.34375 44.902344 123.207031 45.039062 123.074219 45.304688 C 122.941406 45.4375 122.808594 45.703125 122.675781 45.96875 C 122.675781 46.371094 122.539062 46.503906 122.539062 46.769531 Z M 131.605469 45.96875 L 131.605469 49.96875 L 130.40625 49.96875 L 130.40625 43.835938 L 131.339844 43.835938 L 134.539062 47.835938 L 134.539062 43.835938 L 135.738281 43.835938 L 135.738281 49.96875 L 134.804688 49.96875 Z M 143.46875 48.902344 L 143.46875 49.96875 L 139.203125 49.96875 L 139.203125 43.835938 L 143.335938 43.835938 L 143.335938 44.902344 L 140.269531 44.902344 L 140.269531 46.371094 L 142.804688 46.371094 L 142.804688 47.304688 L 140.269531 47.304688 L 140.269531 48.902344 Z M 150.535156 46.769531 C 150.535156 46.371094 150.667969 45.96875 150.800781 45.703125 C 150.933594 45.304688 151.203125 45.039062 151.335938 44.769531 C 151.601562 44.503906 151.867188 44.238281 152.269531 44.105469 C 152.667969 43.972656 153.066406 43.835938 153.601562 43.835938 C 154.132812 43.835938 154.667969 43.972656 155.066406 44.238281 C 155.46875 44.503906 155.734375 44.769531 156 45.171875 L 155.066406 45.835938 C 154.933594 45.703125 154.933594 45.570312 154.800781 45.4375 C 154.667969 45.304688 154.535156 45.171875 154.402344 45.171875 C 154.269531 45.039062 154.132812 45.039062 154 45.039062 L 153.601562 45.039062 C 153.335938 45.039062 153.066406 45.039062 152.800781 45.171875 C 152.535156 45.304688 152.402344 45.4375 152.269531 45.703125 C 152.136719 45.835938 152 46.105469 151.867188 46.371094 C 151.734375 46.636719 151.734375 46.902344 151.734375 47.171875 C 151.734375 47.4375 151.734375 47.703125 151.867188 47.96875 C 152 48.238281 152.136719 48.503906 152.269531 48.636719 C 152.402344 48.769531 152.667969 49.035156 152.800781 49.035156 C 153.066406 49.167969 153.203125 49.167969 153.601562 49.167969 L 154 49.167969 C 154.132812 49.167969 154.269531 49.035156 154.402344 49.035156 C 154.535156 48.902344 154.667969 48.902344 154.800781 48.769531 C 154.933594 48.636719 155.066406 48.503906 155.066406 48.371094 L 156 48.902344 C 155.867188 49.167969 155.734375 49.304688 155.601562 49.570312 C 155.46875 49.703125 155.199219 49.835938 154.933594 49.96875 C 154.667969 50.101562 154.402344 50.234375 154.269531 50.234375 C 154 50.234375 153.734375 50.371094 153.46875 50.371094 C 153.066406 50.371094 152.667969 50.234375 152.269531 50.101562 C 151.867188 49.96875 151.601562 49.703125 151.335938 49.4375 C 151.070312 49.167969 150.800781 48.769531 150.667969 48.371094 C 150.535156 47.570312 150.535156 47.171875 150.535156 46.769531 Z M 160.667969 43.703125 L 161.734375 43.703125 L 164.132812 49.835938 L 162.933594 49.835938 L 162.398438 48.238281 L 160.265625 48.238281 L 159.734375 49.835938 L 158.535156 49.835938 Z M 162 47.570312 L 161.199219 45.171875 L 160.265625 47.570312 Z M 168.132812 45.96875 L 168.132812 49.96875 L 166.929688 49.96875 L 166.929688 43.835938 L 167.863281 43.835938 L 171.0625 47.835938 L 171.0625 43.835938 L 172.261719 43.835938 L 172.261719 49.96875 L 171.332031 49.96875 Z M 184.929688 49.835938 L 184.929688 45.703125 L 183.328125 48.769531 L 182.664062 48.769531 L 181.0625 45.703125 L 181.0625 49.835938 L 179.996094 49.835938 L 179.996094 43.703125 L 181.328125 43.703125 L 183.195312 47.171875 L 185.058594 43.703125 L 186.394531 43.703125 L 186.394531 49.835938 Z M 192.261719 48.902344 C 192.527344 48.902344 192.792969 48.902344 192.925781 48.769531 C 193.058594 48.636719 193.328125 48.503906 193.460938 48.371094 C 193.59375 48.238281 193.726562 47.96875 193.726562 47.703125 C 193.726562 47.4375 193.859375 47.171875 193.859375 46.902344 L 193.859375 43.703125 L 195.058594 43.703125 L 195.058594 46.902344 C 195.058594 47.304688 195.058594 47.703125 194.925781 48.101562 C 194.792969 48.503906 194.660156 48.769531 194.394531 49.035156 C 194.125 49.304688 193.859375 49.570312 193.59375 49.703125 C 193.191406 49.835938 192.792969 49.96875 192.394531 49.96875 C 191.859375 49.96875 191.460938 49.835938 191.195312 49.703125 C 190.792969 49.570312 190.527344 49.304688 190.394531 49.035156 C 190.128906 48.769531 189.992188 48.371094 189.992188 48.101562 C 189.859375 47.703125 189.859375 47.304688 189.859375 46.902344 L 189.859375 43.703125 L 191.058594 43.703125 L 191.058594 46.902344 C 191.058594 47.171875 191.058594 47.4375 191.195312 47.703125 C 191.195312 47.96875 191.328125 48.101562 191.460938 48.371094 C 191.59375 48.503906 191.726562 48.769531 191.859375 48.769531 C 191.726562 48.769531 191.992188 48.902344 192.261719 48.902344 Z M 201.992188 45.304688 C 201.992188 45.304688 201.859375 45.171875 201.722656 45.171875 C 201.589844 45.039062 201.457031 45.039062 201.324219 44.902344 C 201.191406 44.902344 201.058594 44.769531 200.792969 44.769531 C 200.65625 44.769531 200.390625 44.636719 200.257812 44.636719 C 199.992188 44.636719 199.726562 44.636719 199.457031 44.769531 C 199.324219 44.902344 199.191406 45.039062 199.191406 45.304688 C 199.191406 45.4375 199.191406 45.570312 199.324219 45.570312 C 199.324219 45.703125 199.457031 45.703125 199.589844 45.835938 C 199.726562 45.835938 199.859375 45.96875 199.992188 45.96875 C 200.125 45.96875 200.390625 46.105469 200.65625 46.105469 C 200.925781 46.238281 201.191406 46.238281 201.457031 46.371094 C 201.722656 46.503906 201.859375 46.636719 202.125 46.769531 C 202.257812 46.902344 202.390625 47.035156 202.523438 47.304688 C 202.65625 47.4375 202.65625 47.703125 202.65625 47.96875 C 202.65625 48.238281 202.65625 48.636719 202.523438 48.769531 C 202.390625 49.035156 202.257812 49.167969 201.992188 49.304688 C 201.722656 49.4375 201.589844 49.570312 201.324219 49.570312 C 201.058594 49.703125 200.792969 49.703125 200.523438 49.703125 C 200.125 49.703125 199.589844 49.570312 199.191406 49.4375 C 198.792969 49.304688 198.390625 49.035156 197.992188 48.902344 L 198.523438 47.835938 L 198.792969 48.101562 C 198.925781 48.238281 199.058594 48.238281 199.324219 48.371094 C 199.457031 48.503906 199.726562 48.503906 199.992188 48.636719 C 200.257812 48.636719 200.390625 48.769531 200.65625 48.769531 C 201.324219 48.769531 201.589844 48.503906 201.589844 48.101562 C 201.589844 47.96875 201.589844 47.835938 201.457031 47.703125 L 201.191406 47.4375 C 201.058594 47.304688 200.925781 47.304688 200.65625 47.304688 C 200.523438 47.304688 200.257812 47.171875 199.992188 47.171875 C 199.726562 47.035156 199.457031 47.035156 199.191406 46.902344 C 198.925781 46.769531 198.792969 46.636719 198.660156 46.503906 C 198.523438 46.371094 198.390625 46.238281 198.390625 46.105469 C 198.257812 45.96875 198.257812 45.703125 198.257812 45.4375 C 198.257812 45.171875 198.257812 44.902344 198.390625 44.636719 C 198.523438 44.371094 198.660156 44.238281 198.925781 43.972656 C 199.191406 43.835938 199.324219 43.703125 199.589844 43.570312 C 199.859375 43.4375 200.125 43.4375 200.523438 43.4375 C 200.925781 43.4375 201.324219 43.570312 201.722656 43.703125 C 202.125 43.835938 202.390625 43.972656 202.65625 44.238281 Z M 205.722656 49.835938 L 205.722656 43.703125 L 206.921875 43.703125 L 206.921875 49.835938 Z M 209.988281 46.769531 C 209.988281 46.371094 210.121094 45.96875 210.253906 45.703125 C 210.390625 45.304688 210.523438 45.039062 210.789062 44.769531 C 211.054688 44.503906 211.320312 44.238281 211.722656 44.105469 C 212.121094 43.972656 212.523438 43.835938 213.054688 43.835938 C 213.589844 43.835938 214.121094 43.972656 214.519531 44.238281 C 214.921875 44.503906 215.1875 44.769531 215.453125 45.171875 L 214.519531 45.835938 C 214.386719 45.703125 214.386719 45.570312 214.253906 45.4375 C 214.121094 45.304688 213.988281 45.171875 213.855469 45.171875 C 213.722656 45.039062 213.589844 45.039062 213.453125 45.039062 L 213.054688 45.039062 C 212.789062 45.039062 212.523438 45.039062 212.253906 45.171875 C 211.988281 45.304688 211.855469 45.4375 211.722656 45.703125 C 211.589844 45.835938 211.457031 46.105469 211.320312 46.371094 C 211.1875 46.636719 211.1875 46.902344 211.1875 47.171875 C 211.1875 47.4375 211.1875 47.703125 211.320312 47.96875 C 211.457031 48.238281 211.589844 48.503906 211.722656 48.636719 C 211.855469 48.769531 212.121094 49.035156 212.253906 49.035156 C 212.523438 49.167969 212.789062 49.167969 213.054688 49.167969 L 213.453125 49.167969 C 213.589844 49.167969 213.722656 49.035156 213.855469 49.035156 C 213.988281 48.902344 214.121094 48.902344 214.253906 48.769531 C 214.386719 48.636719 214.519531 48.503906 214.519531 48.371094 L 215.453125 48.902344 C 215.320312 49.167969 215.1875 49.304688 215.054688 49.570312 C 214.921875 49.703125 214.65625 49.835938 214.386719 49.96875 C 214.121094 50.101562 213.855469 50.234375 213.589844 50.234375 C 213.320312 50.234375 213.054688 50.371094 212.789062 50.371094 C 212.386719 50.371094 211.988281 50.234375 211.589844 50.101562 C 211.1875 49.96875 210.921875 49.703125 210.65625 49.4375 C 210.390625 49.167969 210.121094 48.769531 209.988281 48.371094 C 210.121094 47.570312 209.988281 47.171875 209.988281 46.769531 Z M 209.988281 46.769531 "/>
</g>
</svg>
