<?xml version="1.0" encoding="UTF-8"?>
<svg xmlns="http://www.w3.org/2000/svg" xmlns:xlink="http://www.w3.org/1999/xlink" width="400px" height="100px" viewBox="0 0 400 100" version="1.1">
<g id="surface1">
<path style=" stroke:none;fill-rule:evenodd;fill:rgb(100%,100%,100%);fill-opacity:1;" d="M 82.707031 34.625 C 75.597656 26.628906 62.710938 19.519531 55.824219 16.1875 C 53.601562 15.074219 52.269531 17.519531 54.492188 18.628906 C 59.824219 21.074219 66.933594 25.515625 72.929688 30.40625 C 81.59375 37.515625 83.375 48.402344 74.265625 56.84375 C 64.488281 65.953125 52.714844 72.839844 40.050781 77.0625 C 27.386719 81.285156 18.941406 76.617188 13.832031 67.507812 C 6.5 54.398438 4.945312 33.515625 13.832031 20.851562 C 26.273438 3.300781 48.9375 21.296875 52.933594 36.625 C 49.378906 35.515625 44.9375 36.183594 41.160156 38.847656 C 36.496094 41.957031 33.605469 47.511719 34.496094 51.511719 C 35.828125 56.621094 42.269531 58.621094 49.160156 56.175781 C 56.710938 53.511719 60.042969 47.070312 58.710938 39.515625 C 55.378906 22.40625 31.605469 -3.144531 12.5 8.410156 C 7.832031 12.410156 4.277344 18.1875 2.5 25.960938 C -1.496094 43.292969 -0.609375 61.289062 4.5 78.617188 C 8.5 91.726562 18.941406 96.835938 31.828125 93.503906 C 51.378906 88.613281 67.820312 79.285156 82.261719 64.398438 C 91.59375 54.621094 91.371094 44.402344 82.707031 34.625 Z M 188.238281 28.40625 C 183.128906 27.960938 178.90625 30.183594 175.796875 35.070312 C 172.6875 30.183594 168.6875 27.960938 163.355469 28.40625 C 159.578125 28.628906 156.246094 30.183594 154.023438 32.628906 C 151.582031 35.292969 150.246094 38.847656 150.246094 43.292969 L 150.246094 64.621094 L 155.136719 64.621094 L 155.136719 42.625 C 155.136719 39.738281 155.800781 37.515625 157.355469 35.515625 C 158.914062 33.515625 160.910156 32.628906 163.578125 32.628906 C 166.242188 32.628906 168.464844 33.515625 170.464844 35.292969 C 172.464844 37.070312 173.355469 39.070312 173.355469 41.734375 L 173.355469 64.621094 L 178.464844 64.621094 L 178.464844 41.734375 C 178.464844 39.292969 179.351562 37.070312 181.351562 35.292969 C 183.351562 33.515625 185.574219 32.628906 188.238281 32.628906 C 190.90625 32.628906 192.90625 33.515625 194.460938 35.515625 C 196.015625 37.515625 196.902344 39.738281 196.902344 42.625 L 196.902344 64.621094 L 201.792969 64.621094 L 201.792969 43.292969 C 201.792969 38.847656 200.457031 35.292969 198.015625 32.628906 C 195.125 30.183594 192.015625 28.628906 188.238281 28.40625 Z M 140.472656 34.183594 L 140.25 33.960938 C 136.695312 30.40625 132.472656 28.40625 127.585938 28.183594 C 122.476562 27.960938 118.03125 29.738281 114.253906 33.515625 C 110.476562 37.292969 108.699219 41.734375 108.699219 46.847656 C 108.699219 51.957031 110.476562 56.175781 113.8125 59.730469 C 117.367188 63.289062 121.363281 65.285156 126.253906 65.507812 C 131.808594 65.730469 136.695312 63.507812 140.472656 59.066406 L 140.472656 64.621094 L 145.136719 64.621094 L 145.136719 29.074219 L 140.472656 29.074219 Z M 136.472656 56.84375 C 133.804688 59.730469 130.25 61.066406 126.476562 60.84375 C 122.921875 60.621094 119.808594 59.289062 117.144531 56.398438 C 114.476562 53.511719 113.367188 50.402344 113.367188 46.625 C 113.367188 42.847656 114.699219 39.515625 117.367188 36.847656 C 120.03125 34.183594 123.363281 32.847656 127.140625 32.847656 C 130.695312 32.847656 133.804688 34.183594 136.472656 36.847656 C 139.140625 39.515625 140.472656 42.625 140.472656 46.402344 C 140.472656 50.402344 139.140625 53.957031 136.472656 56.84375 Z M 330.875 53.734375 L 330.875 33.515625 L 339.09375 33.515625 L 339.09375 29.074219 L 330.875 29.074219 L 330.875 16.628906 L 325.988281 16.628906 L 325.988281 54.398438 C 325.988281 61.730469 330.429688 65.507812 339.09375 65.507812 L 339.09375 61.507812 C 333.761719 61.507812 330.875 58.84375 330.875 53.734375 Z M 399.972656 54.179688 C 399.75 49.511719 397.082031 46.402344 392.417969 44.625 L 388.417969 43.292969 C 385.308594 42.179688 383.753906 40.402344 383.972656 37.960938 C 383.972656 36.625 384.417969 35.515625 385.53125 34.625 C 386.417969 33.738281 387.75 33.292969 389.085938 33.292969 C 390.417969 33.292969 391.75 33.738281 392.640625 34.40625 C 393.75 35.070312 394.195312 36.183594 394.195312 37.515625 L 394.195312 38.402344 L 399.082031 38.402344 L 399.082031 37.292969 C 398.859375 34.847656 397.75 32.628906 395.75 31.070312 C 393.75 29.292969 391.304688 28.628906 389.085938 28.628906 C 386.195312 28.851562 383.972656 29.738281 381.976562 31.738281 C 379.976562 33.738281 379.085938 35.960938 379.308594 38.847656 C 379.53125 43.511719 381.753906 46.402344 386.195312 47.734375 L 390.417969 49.066406 C 393.972656 50.179688 395.527344 52.179688 395.527344 55.289062 C 395.527344 57.066406 394.859375 58.398438 393.972656 59.511719 C 392.863281 60.621094 391.304688 61.289062 389.308594 61.289062 C 387.75 61.289062 386.417969 60.621094 385.085938 59.511719 C 383.753906 58.175781 383.085938 57.066406 383.085938 55.734375 L 383.085938 54.621094 L 378.199219 54.621094 C 378.199219 57.734375 379.308594 60.398438 381.308594 62.398438 C 383.308594 64.621094 385.753906 65.730469 388.863281 65.953125 C 392.195312 66.175781 394.859375 65.066406 397.527344 62.84375 C 399.082031 60.175781 400.191406 57.289062 399.972656 54.179688 Z M 238.449219 34.183594 L 238.226562 33.960938 C 234.671875 30.40625 230.453125 28.40625 225.566406 28.183594 C 220.453125 27.960938 216.011719 29.738281 212.234375 33.515625 C 208.457031 37.292969 206.679688 41.734375 206.679688 46.847656 C 206.679688 51.957031 208.457031 56.175781 211.789062 59.730469 C 215.34375 63.289062 219.34375 65.285156 224.230469 65.507812 C 229.785156 65.730469 234.671875 63.507812 238.449219 59.066406 L 238.449219 64.621094 L 243.117188 64.621094 L 243.117188 29.074219 L 238.449219 29.074219 Z M 234.453125 56.84375 C 231.785156 59.730469 228.230469 61.066406 224.453125 60.84375 C 220.898438 60.621094 217.789062 59.289062 215.121094 56.398438 C 212.457031 53.511719 211.34375 50.402344 211.34375 46.625 C 211.34375 42.847656 212.679688 39.515625 215.34375 36.847656 C 218.011719 34.183594 221.34375 32.847656 225.121094 32.847656 C 228.675781 32.847656 231.785156 34.183594 234.453125 36.847656 C 237.117188 39.515625 238.449219 42.625 238.449219 46.402344 C 238.449219 50.402344 237.117188 53.957031 234.453125 56.84375 Z M 357.535156 28.183594 C 352.203125 27.960938 347.539062 29.738281 343.761719 33.515625 C 339.761719 37.292969 337.984375 41.957031 338.207031 47.289062 C 338.207031 52.402344 340.207031 56.621094 343.984375 60.398438 C 347.761719 63.953125 351.980469 65.730469 356.871094 65.730469 C 360.644531 65.730469 364.199219 64.621094 367.535156 62.398438 C 370.644531 60.175781 372.867188 57.066406 374.199219 53.289062 L 369.089844 53.289062 C 366.644531 58.398438 362.644531 61.066406 357.089844 61.066406 C 353.535156 61.066406 350.203125 59.953125 347.539062 57.734375 C 344.871094 55.289062 343.316406 52.402344 342.871094 48.847656 L 374.867188 48.847656 L 374.867188 46.179688 C 374.867188 41.734375 373.089844 37.738281 369.753906 34.183594 C 366.421875 30.40625 362.421875 28.40625 357.535156 28.183594 Z M 343.09375 44.179688 C 343.761719 40.847656 345.316406 38.179688 347.980469 35.960938 C 350.648438 33.960938 353.535156 32.847656 356.871094 32.847656 C 360.203125 32.847656 363.3125 33.960938 365.757812 35.960938 C 368.199219 37.960938 369.753906 40.625 370.421875 43.957031 L 343.09375 43.957031 Z M 303.546875 28.183594 C 298.4375 27.960938 293.992188 29.738281 290.21875 33.515625 C 286.441406 37.292969 284.664062 41.734375 284.664062 46.847656 C 284.664062 51.957031 286.441406 56.175781 289.773438 59.730469 C 293.105469 63.289062 297.328125 65.285156 302.4375 65.285156 C 307.546875 65.507812 311.988281 63.730469 315.765625 59.953125 C 319.542969 56.175781 321.320312 51.734375 321.320312 46.625 C 321.320312 41.515625 319.542969 37.292969 316.210938 33.738281 C 312.65625 30.40625 308.433594 28.40625 303.546875 28.183594 Z M 312.65625 56.84375 C 309.992188 59.730469 306.4375 61.066406 302.660156 60.84375 C 298.882812 60.621094 295.992188 59.289062 293.328125 56.398438 C 290.882812 53.511719 289.550781 50.402344 289.550781 46.625 C 289.550781 42.847656 290.882812 39.515625 293.550781 36.847656 C 296.214844 34.183594 299.546875 32.847656 303.324219 32.847656 C 306.878906 32.847656 309.992188 34.183594 312.65625 36.847656 C 315.324219 39.515625 316.65625 42.625 316.65625 46.402344 C 316.65625 50.402344 315.324219 53.957031 312.65625 56.84375 Z M 264 28.40625 C 259.558594 28.40625 255.78125 29.960938 252.667969 33.070312 C 249.558594 36.183594 248.226562 39.957031 248.226562 44.625 L 248.226562 64.84375 L 253.113281 64.84375 L 253.113281 43.957031 C 253.113281 40.847656 254.226562 38.402344 256.445312 36.183594 C 258.667969 33.960938 261.113281 32.847656 264.222656 32.847656 C 267.109375 32.847656 269.777344 33.960938 271.777344 36.183594 C 274 38.402344 275.109375 40.847656 275.109375 43.957031 L 275.109375 64.84375 L 279.996094 64.84375 L 279.996094 44.625 C 279.996094 39.957031 278.441406 36.183594 275.554688 33.070312 C 272.222656 29.960938 268.445312 28.40625 264 28.40625 Z M 146.691406 81.503906 L 146.691406 83.28125 L 139.582031 83.28125 L 139.582031 73.0625 L 146.46875 73.0625 L 146.46875 74.839844 L 141.359375 74.839844 L 141.359375 77.285156 L 145.582031 77.285156 L 145.582031 78.839844 L 141.359375 78.839844 L 141.359375 81.503906 Z M 152.914062 72.839844 L 155.578125 80.617188 L 158.246094 72.839844 L 160.246094 72.839844 L 156.246094 83.0625 L 154.46875 83.0625 L 150.46875 72.839844 Z M 172.464844 81.503906 L 172.464844 83.28125 L 165.355469 83.28125 L 165.355469 73.0625 L 172.242188 73.0625 L 172.242188 74.839844 L 167.132812 74.839844 L 167.132812 77.285156 L 171.355469 77.285156 L 171.355469 78.839844 L 167.132812 78.839844 L 167.132812 81.503906 Z M 177.574219 83.0625 L 177.574219 72.839844 L 182.019531 72.839844 C 182.460938 72.839844 182.90625 72.839844 183.351562 73.0625 C 183.796875 73.285156 184.019531 73.507812 184.460938 73.953125 C 184.683594 74.171875 184.90625 74.617188 185.128906 75.0625 C 185.351562 75.507812 185.351562 75.949219 185.351562 76.394531 C 185.351562 77.0625 185.128906 77.726562 184.90625 78.171875 C 184.683594 78.617188 184.019531 79.0625 183.574219 79.285156 L 186.015625 83.0625 L 183.796875 83.0625 L 181.796875 79.726562 L 179.796875 79.726562 L 179.796875 83.0625 Z M 179.574219 77.949219 L 182.019531 77.949219 C 182.242188 77.949219 182.460938 77.949219 182.460938 77.726562 C 182.683594 77.726562 182.683594 77.507812 182.90625 77.285156 C 183.128906 77.0625 183.128906 77.0625 183.128906 76.839844 L 183.128906 76.171875 C 183.128906 75.949219 183.128906 75.730469 182.90625 75.507812 C 182.90625 75.285156 182.683594 75.0625 182.683594 75.0625 L 182.242188 74.617188 C 182.019531 74.617188 181.796875 74.394531 181.796875 74.394531 L 179.351562 74.394531 L 179.351562 77.949219 Z M 191.570312 72.839844 L 194.015625 77.726562 L 196.683594 72.839844 L 198.902344 72.839844 L 195.125 79.503906 L 195.125 83.0625 L 193.128906 83.0625 L 193.128906 79.503906 L 189.351562 72.839844 Z M 207.347656 83.28125 C 206.679688 83.28125 206.011719 83.0625 205.347656 82.839844 C 204.679688 82.617188 204.234375 82.171875 203.792969 81.726562 C 203.347656 81.285156 202.902344 80.617188 202.679688 79.949219 C 202.457031 79.285156 202.234375 78.617188 202.234375 77.949219 C 202.234375 77.285156 202.457031 76.617188 202.679688 75.949219 C 202.902344 75.285156 203.347656 74.839844 203.792969 74.394531 C 204.234375 73.953125 204.679688 73.507812 205.347656 73.285156 C 206.011719 73.0625 206.679688 72.839844 207.347656 72.839844 C 208.011719 72.839844 208.679688 73.0625 209.347656 73.285156 C 210.011719 73.507812 210.457031 73.953125 210.902344 74.394531 C 211.34375 74.839844 211.566406 75.507812 212.011719 76.171875 C 212.234375 76.839844 212.457031 77.507812 212.457031 78.171875 C 212.457031 78.839844 212.234375 79.503906 212.011719 80.171875 C 211.789062 80.839844 211.34375 81.285156 210.902344 81.726562 C 210.457031 82.171875 210.011719 82.617188 209.347656 82.839844 C 208.679688 83.0625 208.011719 83.28125 207.347656 83.28125 Z M 204.234375 77.949219 C 204.234375 78.394531 204.234375 78.839844 204.457031 79.285156 C 204.679688 79.726562 204.679688 80.171875 205.125 80.394531 C 205.347656 80.617188 205.789062 81.0625 206.011719 81.0625 C 206.457031 81.285156 206.902344 81.285156 207.347656 81.285156 C 207.789062 81.285156 208.234375 81.285156 208.679688 81.0625 C 209.125 80.839844 209.347656 80.617188 209.566406 80.171875 C 209.789062 79.949219 210.011719 79.503906 210.234375 79.0625 C 210.457031 78.617188 210.457031 78.171875 210.457031 77.726562 C 210.457031 77.285156 210.457031 76.839844 210.234375 76.394531 C 210.011719 75.949219 209.789062 75.507812 209.566406 75.285156 C 209.347656 75.0625 208.902344 74.617188 208.679688 74.617188 C 208.234375 74.394531 207.789062 74.394531 207.347656 74.394531 C 206.902344 74.394531 206.457031 74.394531 206.011719 74.617188 C 205.570312 74.839844 205.347656 75.0625 205.125 75.507812 C 204.902344 75.730469 204.679688 76.171875 204.457031 76.617188 C 204.457031 77.285156 204.234375 77.507812 204.234375 77.949219 Z M 219.34375 76.617188 L 219.34375 83.28125 L 217.34375 83.28125 L 217.34375 73.0625 L 218.898438 73.0625 L 224.230469 79.726562 L 224.230469 73.0625 L 226.230469 73.0625 L 226.230469 83.28125 L 224.675781 83.28125 Z M 239.117188 81.503906 L 239.117188 83.28125 L 232.007812 83.28125 L 232.007812 73.0625 L 238.894531 73.0625 L 238.894531 74.839844 L 233.785156 74.839844 L 233.785156 77.285156 L 238.007812 77.285156 L 238.007812 78.839844 L 233.785156 78.839844 L 233.785156 81.503906 Z M 250.890625 77.949219 C 250.890625 77.285156 251.113281 76.617188 251.335938 76.171875 C 251.558594 75.507812 252.003906 75.0625 252.226562 74.617188 C 252.667969 74.171875 253.113281 73.730469 253.78125 73.507812 C 254.445312 73.285156 255.113281 73.0625 256.003906 73.0625 C 256.890625 73.0625 257.78125 73.285156 258.445312 73.730469 C 259.113281 74.171875 259.558594 74.617188 260 75.285156 L 258.445312 76.394531 C 258.222656 76.171875 258.222656 75.949219 258 75.730469 C 257.78125 75.507812 257.558594 75.285156 257.335938 75.285156 C 257.113281 75.0625 256.890625 75.0625 256.667969 75.0625 L 256.003906 75.0625 C 255.558594 75.0625 255.113281 75.0625 254.667969 75.285156 C 254.226562 75.507812 254.003906 75.730469 253.78125 76.171875 C 253.558594 76.394531 253.335938 76.839844 253.113281 77.285156 C 252.890625 77.726562 252.890625 78.171875 252.890625 78.617188 C 252.890625 79.0625 252.890625 79.503906 253.113281 79.949219 C 253.335938 80.394531 253.558594 80.839844 253.78125 81.0625 C 254.003906 81.285156 254.445312 81.726562 254.667969 81.726562 C 255.113281 81.949219 255.335938 81.949219 256.003906 81.949219 L 256.667969 81.949219 C 256.890625 81.949219 257.113281 81.726562 257.335938 81.726562 C 257.558594 81.503906 257.78125 81.503906 258 81.285156 C 258.222656 81.0625 258.445312 80.839844 258.445312 80.617188 L 260 81.503906 C 259.777344 81.949219 259.558594 82.171875 259.335938 82.617188 C 259.113281 82.839844 258.667969 83.0625 258.222656 83.28125 C 257.78125 83.503906 257.335938 83.726562 257.113281 83.726562 C 256.667969 83.726562 256.222656 83.949219 255.78125 83.949219 C 255.113281 83.949219 254.445312 83.726562 253.78125 83.503906 C 253.113281 83.28125 252.667969 82.839844 252.226562 82.394531 C 251.78125 81.949219 251.335938 81.285156 251.113281 80.617188 C 250.890625 79.285156 250.890625 78.617188 250.890625 77.949219 Z M 267.777344 72.839844 L 269.554688 72.839844 L 273.554688 83.0625 L 271.554688 83.0625 L 270.664062 80.394531 L 267.109375 80.394531 L 266.222656 83.0625 L 264.222656 83.0625 Z M 270 79.285156 L 268.667969 75.285156 L 267.109375 79.285156 Z M 280.21875 76.617188 L 280.21875 83.28125 L 278.21875 83.28125 L 278.21875 73.0625 L 279.773438 73.0625 L 285.105469 79.726562 L 285.105469 73.0625 L 287.105469 73.0625 L 287.105469 83.28125 L 285.550781 83.28125 Z M 308.214844 83.0625 L 308.214844 76.171875 L 305.546875 81.285156 L 304.4375 81.285156 L 301.769531 76.171875 L 301.769531 83.0625 L 299.992188 83.0625 L 299.992188 72.839844 L 302.214844 72.839844 L 305.324219 78.617188 L 308.433594 72.839844 L 310.65625 72.839844 L 310.65625 83.0625 Z M 320.433594 81.503906 C 320.878906 81.503906 321.320312 81.503906 321.542969 81.285156 C 321.765625 81.0625 322.210938 80.839844 322.433594 80.617188 C 322.65625 80.394531 322.875 79.949219 322.875 79.503906 C 322.875 79.0625 323.097656 78.617188 323.097656 78.171875 L 323.097656 72.839844 L 325.097656 72.839844 L 325.097656 78.171875 C 325.097656 78.839844 325.097656 79.503906 324.875 80.171875 C 324.652344 80.839844 324.433594 81.285156 323.988281 81.726562 C 323.542969 82.171875 323.097656 82.617188 322.65625 82.839844 C 321.988281 83.0625 321.320312 83.28125 320.65625 83.28125 C 319.765625 83.28125 319.101562 83.0625 318.65625 82.839844 C 317.988281 82.617188 317.542969 82.171875 317.324219 81.726562 C 316.878906 81.285156 316.65625 80.617188 316.65625 80.171875 C 316.433594 79.503906 316.433594 78.839844 316.433594 78.171875 L 316.433594 72.839844 L 318.433594 72.839844 L 318.433594 78.171875 C 318.433594 78.617188 318.433594 79.0625 318.65625 79.503906 C 318.65625 79.949219 318.878906 80.171875 319.101562 80.617188 C 319.320312 80.839844 319.542969 81.285156 319.765625 81.285156 C 319.542969 81.285156 319.988281 81.503906 320.433594 81.503906 Z M 336.652344 75.507812 C 336.652344 75.507812 336.429688 75.285156 336.207031 75.285156 C 335.984375 75.0625 335.761719 75.0625 335.539062 74.839844 C 335.320312 74.839844 335.097656 74.617188 334.652344 74.617188 C 334.429688 74.617188 333.984375 74.394531 333.761719 74.394531 C 333.320312 74.394531 332.875 74.394531 332.429688 74.617188 C 332.207031 74.839844 331.984375 75.0625 331.984375 75.507812 C 331.984375 75.730469 331.984375 75.949219 332.207031 75.949219 C 332.207031 76.171875 332.429688 76.171875 332.652344 76.394531 C 332.875 76.394531 333.097656 76.617188 333.320312 76.617188 C 333.542969 76.617188 333.984375 76.839844 334.429688 76.839844 C 334.875 77.0625 335.320312 77.0625 335.761719 77.285156 C 336.207031 77.507812 336.429688 77.726562 336.875 77.949219 C 337.097656 78.171875 337.316406 78.394531 337.539062 78.839844 C 337.761719 79.0625 337.761719 79.503906 337.761719 79.949219 C 337.761719 80.394531 337.761719 81.0625 337.539062 81.285156 C 337.316406 81.726562 337.097656 81.949219 336.652344 82.171875 C 336.207031 82.394531 335.984375 82.617188 335.539062 82.617188 C 335.097656 82.839844 334.652344 82.839844 334.207031 82.839844 C 333.542969 82.839844 332.652344 82.617188 331.984375 82.394531 C 331.320312 82.171875 330.652344 81.726562 329.984375 81.503906 L 330.875 79.726562 L 331.320312 80.171875 C 331.542969 80.394531 331.765625 80.394531 332.207031 80.617188 C 332.429688 80.839844 332.875 80.839844 333.320312 81.0625 C 333.761719 81.0625 333.984375 81.285156 334.429688 81.285156 C 335.539062 81.285156 335.984375 80.839844 335.984375 80.171875 C 335.984375 79.949219 335.984375 79.726562 335.761719 79.503906 L 335.320312 79.0625 C 335.097656 78.839844 334.875 78.839844 334.429688 78.839844 C 334.207031 78.839844 333.761719 78.617188 333.320312 78.617188 C 332.875 78.394531 332.429688 78.394531 331.984375 78.171875 C 331.542969 77.949219 331.320312 77.726562 331.097656 77.507812 C 330.875 77.285156 330.652344 77.0625 330.652344 76.839844 C 330.429688 76.617188 330.429688 76.171875 330.429688 75.730469 C 330.429688 75.285156 330.429688 74.839844 330.652344 74.394531 C 330.875 73.953125 331.097656 73.730469 331.542969 73.285156 C 331.984375 73.0625 332.207031 72.839844 332.652344 72.617188 C 333.097656 72.394531 333.542969 72.394531 334.207031 72.394531 C 334.875 72.394531 335.539062 72.617188 336.207031 72.839844 C 336.875 73.0625 337.316406 73.285156 337.761719 73.730469 Z M 342.871094 83.0625 L 342.871094 72.839844 L 344.871094 72.839844 L 344.871094 83.0625 Z M 349.980469 77.949219 C 349.980469 77.285156 350.203125 76.617188 350.425781 76.171875 C 350.648438 75.507812 350.871094 75.0625 351.316406 74.617188 C 351.757812 74.171875 352.203125 73.730469 352.871094 73.507812 C 353.535156 73.285156 354.203125 73.0625 355.09375 73.0625 C 355.980469 73.0625 356.871094 73.285156 357.535156 73.730469 C 358.203125 74.171875 358.648438 74.617188 359.089844 75.285156 L 357.535156 76.394531 C 357.3125 76.171875 357.3125 75.949219 357.089844 75.730469 C 356.871094 75.507812 356.648438 75.285156 356.425781 75.285156 C 356.203125 75.0625 355.980469 75.0625 355.757812 75.0625 L 355.09375 75.0625 C 354.648438 75.0625 354.203125 75.0625 353.757812 75.285156 C 353.316406 75.507812 353.09375 75.730469 352.871094 76.171875 C 352.648438 76.394531 352.425781 76.839844 352.203125 77.285156 C 351.980469 77.726562 351.980469 78.171875 351.980469 78.617188 C 351.980469 79.0625 351.980469 79.503906 352.203125 79.949219 C 352.425781 80.394531 352.648438 80.839844 352.871094 81.0625 C 353.09375 81.285156 353.535156 81.726562 353.757812 81.726562 C 354.203125 81.949219 354.648438 81.949219 355.09375 81.949219 L 355.757812 81.949219 C 355.980469 81.949219 356.203125 81.726562 356.425781 81.726562 C 356.648438 81.503906 356.871094 81.503906 357.089844 81.285156 C 357.3125 81.0625 357.535156 80.839844 357.535156 80.617188 L 359.089844 81.503906 C 358.867188 81.949219 358.648438 82.171875 358.425781 82.617188 C 358.203125 82.839844 357.757812 83.0625 357.3125 83.28125 C 356.871094 83.503906 356.425781 83.726562 355.980469 83.726562 C 355.535156 83.726562 355.09375 83.949219 354.648438 83.949219 C 353.980469 83.949219 353.316406 83.726562 352.648438 83.503906 C 351.980469 83.28125 351.539062 82.839844 351.09375 82.394531 C 350.648438 81.949219 350.203125 81.285156 349.980469 80.617188 C 350.203125 79.285156 349.980469 78.617188 349.980469 77.949219 Z M 349.980469 77.949219 "/>
</g>
</svg>
