<?xml version="1.0" encoding="UTF-8"?>
<svg xmlns="http://www.w3.org/2000/svg" xmlns:xlink="http://www.w3.org/1999/xlink" width="400px" height="100px" viewBox="0 0 400 100" version="1.1">
<g id="surface1">
<path style=" stroke:none;fill-rule:evenodd;fill:rgb(100%,100%,100%);fill-opacity:1;" d="M 165.414062 69.253906 C 151.195312 53.257812 125.421875 39.039062 111.648438 32.371094 C 107.203125 30.152344 104.539062 35.039062 108.980469 37.261719 C 119.644531 42.148438 133.863281 51.035156 145.863281 60.8125 C 163.191406 75.03125 166.746094 96.804688 148.527344 113.6875 C 128.976562 131.90625 105.425781 145.679688 80.097656 154.125 C 54.769531 162.566406 37.886719 153.234375 27.664062 135.015625 C 13 108.800781 9.890625 67.03125 27.664062 41.703125 C 52.546875 6.601562 97.871094 42.59375 105.871094 73.253906 C 98.761719 71.03125 89.875 72.363281 82.320312 77.695312 C 72.988281 83.917969 67.210938 95.027344 68.988281 103.023438 C 71.65625 113.242188 84.542969 117.242188 98.316406 112.355469 C 113.425781 107.023438 120.089844 94.136719 117.421875 79.027344 C 110.757812 44.8125 63.214844 -6.285156 25 16.820312 C 15.667969 24.820312 8.558594 36.371094 5.003906 51.921875 C -2.996094 86.582031 -1.21875 122.574219 9.003906 157.234375 C 17 183.449219 37.886719 193.671875 63.65625 187.003906 C 102.761719 177.230469 135.640625 158.566406 164.523438 128.796875 C 183.1875 109.246094 182.742188 88.804688 165.414062 69.253906 Z M 376.476562 56.8125 C 366.257812 55.921875 357.816406 60.367188 351.59375 70.140625 C 345.375 60.367188 337.375 55.921875 326.710938 56.8125 C 319.15625 57.257812 312.492188 60.367188 308.046875 65.253906 C 303.160156 70.585938 300.496094 77.695312 300.496094 86.582031 L 300.496094 129.242188 L 310.269531 129.242188 L 310.269531 85.25 C 310.269531 79.472656 311.605469 75.03125 314.714844 71.03125 C 317.824219 67.03125 321.824219 65.253906 327.15625 65.253906 C 332.488281 65.253906 336.929688 67.03125 340.929688 70.585938 C 344.929688 74.140625 346.707031 78.140625 346.707031 83.472656 L 346.707031 129.242188 L 356.925781 129.242188 L 356.925781 83.472656 C 356.925781 78.585938 358.703125 74.140625 362.703125 70.585938 C 366.703125 67.03125 371.144531 65.253906 376.476562 65.253906 C 381.8125 65.253906 385.808594 67.03125 388.921875 71.03125 C 392.03125 75.03125 393.808594 79.472656 393.808594 85.25 L 393.808594 129.242188 L 403.582031 129.242188 L 403.582031 86.582031 C 403.582031 77.695312 400.917969 70.585938 396.03125 65.253906 C 390.253906 60.367188 384.03125 57.257812 376.476562 56.8125 Z M 280.945312 68.363281 L 280.5 67.921875 C 273.390625 60.8125 264.945312 56.8125 255.171875 56.367188 C 244.953125 55.921875 236.0625 59.476562 228.511719 67.03125 C 220.957031 74.585938 217.402344 83.472656 217.402344 93.691406 C 217.402344 103.914062 220.957031 112.355469 227.621094 119.464844 C 234.730469 126.574219 242.730469 130.574219 252.503906 131.019531 C 263.613281 131.460938 273.390625 127.019531 280.945312 118.132812 L 280.945312 129.242188 L 290.273438 129.242188 L 290.273438 58.144531 L 280.945312 58.144531 Z M 272.945312 113.6875 C 267.613281 119.464844 260.503906 122.128906 252.949219 121.6875 C 245.839844 121.242188 239.621094 118.574219 234.285156 112.800781 C 228.953125 107.023438 226.734375 100.800781 226.734375 93.25 C 226.734375 85.695312 229.398438 79.027344 234.730469 73.695312 C 240.0625 68.363281 246.730469 65.699219 254.28125 65.699219 C 261.390625 65.699219 267.613281 68.363281 272.945312 73.695312 C 278.277344 79.027344 280.945312 85.25 280.945312 92.804688 C 280.945312 100.800781 278.277344 107.910156 272.945312 113.6875 Z M 661.75 107.46875 L 661.75 67.03125 L 678.191406 67.03125 L 678.191406 58.144531 L 661.75 58.144531 L 661.75 33.261719 L 651.972656 33.261719 L 651.972656 108.800781 C 651.972656 123.464844 660.859375 131.019531 678.191406 131.019531 L 678.191406 123.019531 C 667.527344 123.019531 661.75 117.6875 661.75 107.46875 Z M 799.941406 108.355469 C 799.496094 99.023438 794.164062 92.804688 784.835938 89.25 L 776.835938 86.582031 C 770.617188 84.359375 767.503906 80.804688 767.949219 75.917969 C 767.949219 73.253906 768.835938 71.03125 771.058594 69.253906 C 772.835938 67.476562 775.503906 66.585938 778.167969 66.585938 C 780.835938 66.585938 783.5 67.476562 785.277344 68.808594 C 787.5 70.140625 788.390625 72.363281 788.390625 75.03125 L 788.390625 76.808594 L 798.164062 76.808594 L 798.164062 74.585938 C 797.71875 69.699219 795.5 65.253906 791.5 62.144531 C 787.5 58.589844 782.613281 57.257812 778.167969 57.257812 C 772.394531 57.699219 767.949219 59.476562 763.949219 63.476562 C 759.949219 67.476562 758.171875 71.917969 758.617188 77.695312 C 759.0625 87.027344 763.503906 92.804688 772.394531 95.46875 L 780.835938 98.136719 C 787.945312 100.359375 791.054688 104.355469 791.054688 110.578125 C 791.054688 114.132812 789.722656 116.796875 787.945312 119.019531 C 785.722656 121.242188 782.613281 122.574219 778.613281 122.574219 C 775.503906 122.574219 772.835938 121.242188 770.171875 119.019531 C 767.503906 116.355469 766.171875 114.132812 766.171875 111.464844 L 766.171875 109.246094 L 756.394531 109.246094 C 756.394531 115.464844 758.617188 120.796875 762.617188 124.796875 C 766.617188 129.242188 771.503906 131.460938 777.726562 131.90625 C 784.390625 132.351562 789.722656 130.128906 795.054688 125.683594 C 798.164062 120.351562 800.386719 114.578125 799.941406 108.355469 Z M 476.902344 68.363281 L 476.457031 67.921875 C 469.347656 60.8125 460.90625 56.8125 451.128906 56.367188 C 440.910156 55.921875 432.023438 59.476562 424.46875 67.03125 C 416.914062 74.585938 413.359375 83.472656 413.359375 93.691406 C 413.359375 103.914062 416.914062 112.355469 423.578125 119.464844 C 430.6875 126.574219 438.6875 130.574219 448.460938 131.019531 C 459.570312 131.460938 469.347656 127.019531 476.902344 118.132812 L 476.902344 129.242188 L 486.234375 129.242188 L 486.234375 58.144531 L 476.902344 58.144531 Z M 468.902344 113.6875 C 463.570312 119.464844 456.460938 122.128906 448.90625 121.6875 C 441.796875 121.242188 435.578125 118.574219 430.246094 112.800781 C 424.914062 107.023438 422.691406 100.800781 422.691406 93.25 C 422.691406 85.695312 425.355469 79.027344 430.6875 73.695312 C 436.019531 68.363281 442.6875 65.699219 450.238281 65.699219 C 457.351562 65.699219 463.570312 68.363281 468.902344 73.695312 C 474.234375 79.027344 476.902344 85.25 476.902344 92.804688 C 476.902344 100.800781 474.234375 107.910156 468.902344 113.6875 Z M 715.070312 56.367188 C 704.40625 55.921875 695.074219 59.476562 687.523438 67.03125 C 679.523438 74.585938 675.96875 83.917969 676.414062 94.582031 C 676.414062 104.800781 680.414062 113.242188 687.964844 120.796875 C 695.519531 127.90625 703.964844 131.460938 713.738281 131.460938 C 721.292969 131.460938 728.402344 129.242188 735.066406 124.796875 C 741.289062 120.351562 745.730469 114.132812 748.398438 106.578125 L 738.179688 106.578125 C 733.289062 116.796875 725.292969 122.128906 714.183594 122.128906 C 707.074219 122.128906 700.410156 119.910156 695.074219 115.464844 C 689.742188 110.578125 686.632812 104.800781 685.746094 97.691406 L 749.730469 97.691406 L 749.730469 92.359375 C 749.730469 83.472656 746.175781 75.472656 739.511719 68.363281 C 732.84375 60.8125 724.847656 56.8125 715.070312 56.367188 Z M 686.1875 88.359375 C 687.523438 81.695312 690.632812 76.363281 695.964844 71.917969 C 701.296875 67.921875 707.074219 65.699219 713.738281 65.699219 C 720.402344 65.699219 726.625 67.921875 731.511719 71.917969 C 736.402344 75.917969 739.511719 81.25 740.84375 87.914062 L 686.1875 87.914062 Z M 607.09375 56.367188 C 596.875 55.921875 587.988281 59.476562 580.433594 67.03125 C 572.878906 74.585938 569.324219 83.472656 569.324219 93.691406 C 569.324219 103.914062 572.878906 112.355469 579.546875 119.464844 C 586.210938 126.574219 594.652344 130.574219 604.875 130.574219 C 615.09375 131.019531 623.980469 127.464844 631.535156 119.910156 C 639.089844 112.355469 642.644531 103.46875 642.644531 93.25 C 642.644531 83.027344 639.089844 74.585938 632.421875 67.476562 C 625.3125 60.8125 616.871094 56.8125 607.09375 56.367188 Z M 625.3125 113.6875 C 619.980469 119.464844 612.871094 122.128906 605.316406 121.6875 C 597.765625 121.242188 591.988281 118.574219 586.65625 112.800781 C 581.765625 107.023438 579.101562 100.800781 579.101562 93.25 C 579.101562 85.695312 581.765625 79.027344 587.097656 73.695312 C 592.429688 68.363281 599.097656 65.699219 606.652344 65.699219 C 613.761719 65.699219 619.980469 68.363281 625.3125 73.695312 C 630.644531 79.027344 633.3125 85.25 633.3125 92.804688 C 633.3125 100.800781 630.644531 107.910156 625.3125 113.6875 Z M 528 56.8125 C 519.113281 56.8125 511.558594 59.921875 505.339844 66.144531 C 499.117188 72.363281 496.453125 79.917969 496.453125 89.25 L 496.453125 129.683594 L 506.226562 129.683594 L 506.226562 87.914062 C 506.226562 81.695312 508.449219 76.808594 512.894531 72.363281 C 517.335938 67.921875 522.226562 65.699219 528.445312 65.699219 C 534.222656 65.699219 539.554688 67.921875 543.554688 72.363281 C 547.996094 76.808594 550.21875 81.695312 550.21875 87.914062 L 550.21875 129.683594 L 559.996094 129.683594 L 559.996094 89.25 C 559.996094 79.917969 556.882812 72.363281 551.105469 66.144531 C 544.441406 59.921875 536.886719 56.8125 528 56.8125 Z M 293.386719 163.011719 L 293.386719 166.566406 L 279.167969 166.566406 L 279.167969 146.125 L 292.941406 146.125 L 292.941406 149.679688 L 282.722656 149.679688 L 282.722656 154.566406 L 291.164062 154.566406 L 291.164062 157.679688 L 282.722656 157.679688 L 282.722656 163.011719 Z M 305.828125 145.679688 L 311.160156 161.234375 L 316.492188 145.679688 L 320.492188 145.679688 L 312.492188 166.121094 L 308.9375 166.121094 L 300.9375 145.679688 Z M 344.929688 163.011719 L 344.929688 166.566406 L 330.710938 166.566406 L 330.710938 146.125 L 344.484375 146.125 L 344.484375 149.679688 L 334.265625 149.679688 L 334.265625 154.566406 L 342.707031 154.566406 L 342.707031 157.679688 L 334.265625 157.679688 L 334.265625 163.011719 Z M 355.148438 166.121094 L 355.148438 145.679688 L 364.035156 145.679688 C 364.925781 145.679688 365.8125 145.679688 366.703125 146.125 C 367.589844 146.570312 368.035156 147.015625 368.925781 147.902344 C 369.367188 148.347656 369.8125 149.234375 370.257812 150.125 C 370.703125 151.011719 370.703125 151.902344 370.703125 152.789062 C 370.703125 154.125 370.257812 155.457031 369.8125 156.34375 C 369.367188 157.234375 368.035156 158.121094 367.148438 158.566406 L 372.035156 166.121094 L 367.589844 166.121094 L 363.59375 159.457031 L 359.59375 159.457031 L 359.59375 166.121094 Z M 359.148438 155.902344 L 364.035156 155.902344 C 364.480469 155.902344 364.925781 155.902344 364.925781 155.457031 C 365.371094 155.457031 365.371094 155.011719 365.8125 154.566406 C 366.257812 154.125 366.257812 154.125 366.257812 153.679688 L 366.257812 152.347656 C 366.257812 151.902344 366.257812 151.457031 365.8125 151.011719 C 365.8125 150.570312 365.371094 150.125 365.371094 150.125 L 364.480469 149.234375 C 364.035156 149.234375 363.59375 148.792969 363.59375 148.792969 L 358.703125 148.792969 L 358.703125 155.902344 Z M 383.144531 145.679688 L 388.03125 155.457031 L 393.363281 145.679688 L 397.808594 145.679688 L 390.253906 159.011719 L 390.253906 166.121094 L 386.253906 166.121094 L 386.253906 159.011719 L 378.699219 145.679688 Z M 414.691406 166.566406 C 413.359375 166.566406 412.027344 166.121094 410.691406 165.675781 C 409.359375 165.234375 408.472656 164.34375 407.582031 163.457031 C 406.695312 162.566406 405.804688 161.234375 405.359375 159.898438 C 404.917969 158.566406 404.472656 157.234375 404.472656 155.902344 C 404.472656 154.566406 404.917969 153.234375 405.359375 151.902344 C 405.804688 150.570312 406.695312 149.679688 407.582031 148.792969 C 408.472656 147.902344 409.359375 147.015625 410.691406 146.570312 C 412.027344 146.125 413.359375 145.679688 414.691406 145.679688 C 416.027344 145.679688 417.359375 146.125 418.691406 146.570312 C 420.023438 147.015625 420.914062 147.902344 421.800781 148.792969 C 422.691406 149.679688 423.136719 151.011719 424.023438 152.347656 C 424.46875 153.679688 424.914062 155.011719 424.914062 156.34375 C 424.914062 157.679688 424.46875 159.011719 424.023438 160.34375 C 423.578125 161.679688 422.691406 162.566406 421.800781 163.457031 C 420.914062 164.34375 420.023438 165.234375 418.691406 165.675781 C 417.359375 166.121094 416.027344 166.566406 414.691406 166.566406 Z M 408.472656 155.902344 C 408.472656 156.789062 408.472656 157.679688 408.914062 158.566406 C 409.359375 159.457031 409.359375 160.34375 410.25 160.789062 C 410.691406 161.234375 411.582031 162.121094 412.027344 162.121094 C 412.914062 162.566406 413.804688 162.566406 414.691406 162.566406 C 415.582031 162.566406 416.46875 162.566406 417.359375 162.121094 C 418.246094 161.679688 418.691406 161.234375 419.136719 160.34375 C 419.582031 159.898438 420.023438 159.011719 420.46875 158.121094 C 420.914062 157.234375 420.914062 156.34375 420.914062 155.457031 C 420.914062 154.566406 420.914062 153.679688 420.46875 152.789062 C 420.023438 151.902344 419.582031 151.011719 419.136719 150.570312 C 418.691406 150.125 417.804688 149.234375 417.359375 149.234375 C 416.46875 148.792969 415.582031 148.792969 414.691406 148.792969 C 413.804688 148.792969 412.914062 148.792969 412.027344 149.234375 C 411.136719 149.679688 410.691406 150.125 410.25 151.011719 C 409.804688 151.457031 409.359375 152.347656 408.914062 153.234375 C 408.914062 154.566406 408.472656 155.011719 408.472656 155.902344 Z M 438.6875 153.234375 L 438.6875 166.566406 L 434.6875 166.566406 L 434.6875 146.125 L 437.796875 146.125 L 448.460938 159.457031 L 448.460938 146.125 L 452.460938 146.125 L 452.460938 166.566406 L 449.351562 166.566406 Z M 478.234375 163.011719 L 478.234375 166.566406 L 464.015625 166.566406 L 464.015625 146.125 L 477.789062 146.125 L 477.789062 149.679688 L 467.570312 149.679688 L 467.570312 154.566406 L 476.011719 154.566406 L 476.011719 157.679688 L 467.570312 157.679688 L 467.570312 163.011719 Z M 501.785156 155.902344 C 501.785156 154.566406 502.230469 153.234375 502.671875 152.347656 C 503.117188 151.011719 504.007812 150.125 504.449219 149.234375 C 505.339844 148.347656 506.226562 147.457031 507.5625 147.015625 C 508.894531 146.570312 510.226562 146.125 512.003906 146.125 C 513.78125 146.125 515.558594 146.570312 516.890625 147.457031 C 518.226562 148.347656 519.113281 149.234375 520.003906 150.570312 L 516.890625 152.789062 C 516.449219 152.347656 516.449219 151.902344 516.003906 151.457031 C 515.558594 151.011719 515.113281 150.570312 514.671875 150.570312 C 514.226562 150.125 513.78125 150.125 513.335938 150.125 L 512.003906 150.125 C 511.117188 150.125 510.226562 150.125 509.339844 150.570312 C 508.449219 151.011719 508.003906 151.457031 507.5625 152.347656 C 507.117188 152.789062 506.671875 153.679688 506.226562 154.566406 C 505.785156 155.457031 505.785156 156.34375 505.785156 157.234375 C 505.785156 158.121094 505.785156 159.011719 506.226562 159.898438 C 506.671875 160.789062 507.117188 161.679688 507.5625 162.121094 C 508.003906 162.566406 508.894531 163.457031 509.339844 163.457031 C 510.226562 163.898438 510.671875 163.898438 512.003906 163.898438 L 513.335938 163.898438 C 513.78125 163.898438 514.226562 163.457031 514.671875 163.457031 C 515.113281 163.011719 515.558594 163.011719 516.003906 162.566406 C 516.449219 162.121094 516.890625 161.679688 516.890625 161.234375 L 520.003906 163.011719 C 519.558594 163.898438 519.113281 164.34375 518.667969 165.234375 C 518.226562 165.675781 517.335938 166.121094 516.449219 166.566406 C 515.558594 167.011719 514.671875 167.453125 514.226562 167.453125 C 513.335938 167.453125 512.449219 167.898438 511.558594 167.898438 C 510.226562 167.898438 508.894531 167.453125 507.5625 167.011719 C 506.226562 166.566406 505.339844 165.675781 504.449219 164.789062 C 503.5625 163.898438 502.671875 162.566406 502.230469 161.234375 C 501.785156 158.566406 501.785156 157.234375 501.785156 155.902344 Z M 535.554688 145.679688 L 539.109375 145.679688 L 547.109375 166.121094 L 543.109375 166.121094 L 541.332031 160.789062 L 534.222656 160.789062 L 532.445312 166.121094 L 528.445312 166.121094 Z M 540 158.566406 L 537.332031 150.570312 L 534.222656 158.566406 Z M 560.4375 153.234375 L 560.4375 166.566406 L 556.4375 166.566406 L 556.4375 146.125 L 559.550781 146.125 L 570.214844 159.457031 L 570.214844 146.125 L 574.214844 146.125 L 574.214844 166.566406 L 571.101562 166.566406 Z M 616.425781 166.121094 L 616.425781 152.347656 L 611.09375 162.566406 L 608.871094 162.566406 L 603.539062 152.347656 L 603.539062 166.121094 L 599.984375 166.121094 L 599.984375 145.679688 L 604.429688 145.679688 L 610.648438 157.234375 L 616.871094 145.679688 L 621.3125 145.679688 L 621.3125 166.121094 Z M 640.867188 163.011719 C 641.753906 163.011719 642.644531 163.011719 643.085938 162.566406 C 643.53125 162.121094 644.421875 161.679688 644.863281 161.234375 C 645.308594 160.789062 645.753906 159.898438 645.753906 159.011719 C 645.753906 158.121094 646.199219 157.234375 646.199219 156.34375 L 646.199219 145.679688 L 650.195312 145.679688 L 650.195312 156.34375 C 650.195312 157.679688 650.195312 159.011719 649.753906 160.34375 C 649.308594 161.679688 648.863281 162.566406 647.976562 163.457031 C 647.085938 164.34375 646.199219 165.234375 645.308594 165.675781 C 643.976562 166.121094 642.644531 166.566406 641.308594 166.566406 C 639.53125 166.566406 638.199219 166.121094 637.3125 165.675781 C 635.976562 165.234375 635.089844 164.34375 634.644531 163.457031 C 633.757812 162.566406 633.3125 161.234375 633.3125 160.34375 C 632.867188 159.011719 632.867188 157.679688 632.867188 156.34375 L 632.867188 145.679688 L 636.867188 145.679688 L 636.867188 156.34375 C 636.867188 157.234375 636.867188 158.121094 637.3125 159.011719 C 637.3125 159.898438 637.753906 160.34375 638.199219 161.234375 C 638.644531 161.679688 639.089844 162.566406 639.53125 162.566406 C 639.089844 162.566406 639.976562 163.011719 640.867188 163.011719 Z M 673.304688 151.011719 C 673.304688 151.011719 672.859375 150.570312 672.414062 150.570312 C 671.96875 150.125 671.527344 150.125 671.082031 149.679688 C 670.636719 149.679688 670.191406 149.234375 669.304688 149.234375 C 668.859375 149.234375 667.972656 148.792969 667.527344 148.792969 C 666.636719 148.792969 665.75 148.792969 664.859375 149.234375 C 664.417969 149.679688 663.972656 150.125 663.972656 151.011719 C 663.972656 151.457031 663.972656 151.902344 664.417969 151.902344 C 664.417969 152.347656 664.859375 152.347656 665.304688 152.789062 C 665.75 152.789062 666.195312 153.234375 666.636719 153.234375 C 667.082031 153.234375 667.972656 153.679688 668.859375 153.679688 C 669.75 154.125 670.636719 154.125 671.527344 154.566406 C 672.414062 155.011719 672.859375 155.457031 673.746094 155.902344 C 674.191406 156.34375 674.636719 156.789062 675.082031 157.679688 C 675.523438 158.121094 675.523438 159.011719 675.523438 159.898438 C 675.523438 160.789062 675.523438 162.121094 675.082031 162.566406 C 674.636719 163.457031 674.191406 163.898438 673.304688 164.34375 C 672.414062 164.789062 671.96875 165.234375 671.082031 165.234375 C 670.191406 165.675781 669.304688 165.675781 668.414062 165.675781 C 667.082031 165.675781 665.304688 165.234375 663.972656 164.789062 C 662.636719 164.34375 661.304688 163.457031 659.972656 163.011719 L 661.75 159.457031 L 662.636719 160.34375 C 663.082031 160.789062 663.527344 160.789062 664.417969 161.234375 C 664.859375 161.679688 665.75 161.679688 666.636719 162.121094 C 667.527344 162.121094 667.972656 162.566406 668.859375 162.566406 C 671.082031 162.566406 671.96875 161.679688 671.96875 160.34375 C 671.96875 159.898438 671.96875 159.457031 671.527344 159.011719 L 670.636719 158.121094 C 670.191406 157.679688 669.75 157.679688 668.859375 157.679688 C 668.414062 157.679688 667.527344 157.234375 666.636719 157.234375 C 665.75 156.789062 664.859375 156.789062 663.972656 156.34375 C 663.082031 155.902344 662.636719 155.457031 662.195312 155.011719 C 661.75 154.566406 661.304688 154.125 661.304688 153.679688 C 660.859375 153.234375 660.859375 152.347656 660.859375 151.457031 C 660.859375 150.570312 660.859375 149.679688 661.304688 148.792969 C 661.75 147.902344 662.195312 147.457031 663.082031 146.570312 C 663.972656 146.125 664.417969 145.679688 665.304688 145.238281 C 666.195312 144.792969 667.082031 144.792969 668.414062 144.792969 C 669.75 144.792969 671.082031 145.238281 672.414062 145.679688 C 673.746094 146.125 674.636719 146.570312 675.523438 147.457031 Z M 685.746094 166.121094 L 685.746094 145.679688 L 689.742188 145.679688 L 689.742188 166.121094 Z M 699.964844 155.902344 C 699.964844 154.566406 700.410156 153.234375 700.851562 152.347656 C 701.296875 151.011719 701.742188 150.125 702.628906 149.234375 C 703.519531 148.347656 704.40625 147.457031 705.742188 147.015625 C 707.074219 146.570312 708.40625 146.125 710.183594 146.125 C 711.960938 146.125 713.738281 146.570312 715.070312 147.457031 C 716.40625 148.347656 717.292969 149.234375 718.183594 150.570312 L 715.070312 152.789062 C 714.628906 152.347656 714.628906 151.902344 714.183594 151.457031 C 713.738281 151.011719 713.292969 150.570312 712.851562 150.570312 C 712.40625 150.125 711.960938 150.125 711.515625 150.125 L 710.183594 150.125 C 709.296875 150.125 708.40625 150.125 707.519531 150.570312 C 706.628906 151.011719 706.183594 151.457031 705.742188 152.347656 C 705.296875 152.789062 704.851562 153.679688 704.40625 154.566406 C 703.964844 155.457031 703.964844 156.34375 703.964844 157.234375 C 703.964844 158.121094 703.964844 159.011719 704.40625 159.898438 C 704.851562 160.789062 705.296875 161.679688 705.742188 162.121094 C 706.183594 162.566406 707.074219 163.457031 707.519531 163.457031 C 708.40625 163.898438 709.296875 163.898438 710.183594 163.898438 L 711.515625 163.898438 C 711.960938 163.898438 712.40625 163.457031 712.851562 163.457031 C 713.292969 163.011719 713.738281 163.011719 714.183594 162.566406 C 714.628906 162.121094 715.070312 161.679688 715.070312 161.234375 L 718.183594 163.011719 C 717.738281 163.898438 717.292969 164.34375 716.847656 165.234375 C 716.40625 165.675781 715.515625 166.121094 714.628906 166.566406 C 713.738281 167.011719 712.851562 167.453125 711.960938 167.453125 C 711.074219 167.453125 710.183594 167.898438 709.296875 167.898438 C 707.960938 167.898438 706.628906 167.453125 705.296875 167.011719 C 703.964844 166.566406 703.074219 165.675781 702.1875 164.789062 C 701.296875 163.898438 700.410156 162.566406 699.964844 161.234375 C 700.410156 158.566406 699.964844 157.234375 699.964844 155.902344 Z M 699.964844 155.902344 "/>
</g>
</svg>
